<svg width="668" height="600" viewBox="0 0 668 600" fill="none" xmlns="http://www.w3.org/2000/svg">
<g clip-path="url(#clip0_140_1396)">
<path d="M49.4799 426.53C49.4799 426.53 28.2299 415.35 20.8599 399.06C13.4899 382.78 20.6899 359.96 18.4699 352.3C32.0699 366.68 40.4299 370.85 46.3699 387.44C52.3099 404.04 50.5799 421.87 49.4799 426.53ZM71.8699 453.68C71.8699 453.68 49.9899 471.02 26.9599 454.28C10.8599 440.72 0.149902 422.22 0.149902 422.22C0.149902 422.22 26.0299 425.71 38.9799 428.76C51.9199 431.81 67.2299 446.78 71.8699 453.68ZM619.08 426.53C619.08 426.53 640.33 415.35 647.7 399.06C655.07 382.78 647.87 359.96 650.09 352.3C636.49 366.68 628.13 370.85 622.19 387.44C616.25 404.04 617.97 421.87 619.08 426.53ZM596.68 453.68C596.68 453.68 618.56 471.02 641.59 454.28C657.69 440.72 668.4 422.22 668.4 422.22C668.4 422.22 642.52 425.71 629.57 428.76C616.63 431.81 601.32 446.78 596.68 453.68Z" fill="#00759F"/>
<path d="M153.55 517.95C153.55 517.95 131.93 536.61 76.1502 522.53C35.4902 512.27 1.99023 472.12 1.99023 472.12C1.99023 472.12 81.8102 441.9 153.55 517.95Z" fill="#00759F"/>
<path d="M151.74 520.46C151.74 520.46 108.76 515.46 67.3102 438.77C37.0902 382.88 47.5602 304.34 47.5602 304.34C47.5602 304.34 163.09 362.44 151.74 520.46Z" fill="#741AAC"/>
<path d="M150.09 518.88C150.09 518.88 115.91 492.36 120.12 405.29C123.19 341.83 172.8 280.05 172.8 280.05C172.8 280.05 241.59 389.55 150.09 518.88Z" fill="#741AAC"/>
<path d="M511.88 514.71C511.88 514.71 533.23 533.13 588.31 519.23C628.46 509.1 661.55 469.45 661.55 469.45C661.55 469.45 582.73 439.6 511.88 514.71Z" fill="#00759F"/>
<path d="M515.01 520.46C515.01 520.46 557.99 515.46 599.44 438.77C629.66 382.88 619.18 304.34 619.18 304.34C619.18 304.34 503.66 362.44 515.01 520.46Z" fill="#741AAC"/>
<path d="M516.66 518.88C516.66 518.88 550.84 492.36 546.63 405.29C543.56 341.83 493.95 280.05 493.95 280.05C493.95 280.05 425.16 389.55 516.66 518.88Z" fill="#741AAC"/>
<path d="M626.06 294.15C626.06 134.06 496.28 4.27979 336.18 4.27979C176.09 4.27979 46.2998 134.06 46.2998 294.15C46.2998 385.47 88.5498 515.08 154.54 568.21H517.81C583.81 515.08 626.06 385.47 626.06 294.15Z" fill="url(#paint0_linear_140_1396)"/>
<path d="M302.98 93.4798C302.985 93.6322 302.959 93.7841 302.903 93.9263C302.848 94.0685 302.765 94.1982 302.659 94.3077C302.553 94.4172 302.426 94.5043 302.285 94.5638C302.145 94.6233 301.994 94.654 301.841 94.654C301.688 94.6541 301.537 94.6235 301.397 94.5642C301.256 94.5048 301.129 94.4179 301.023 94.3085C300.917 94.199 300.833 94.0694 300.778 93.9272C300.723 93.7851 300.697 93.6332 300.701 93.4808C300.71 93.1844 300.833 92.903 301.046 92.6964C301.259 92.4898 301.544 92.3742 301.84 92.374C302.137 92.3739 302.421 92.4893 302.634 92.6957C302.847 92.9022 302.971 93.1834 302.98 93.4798ZM384.74 164.14C384.74 164.365 384.673 164.586 384.548 164.773C384.423 164.961 384.245 165.107 384.036 165.193C383.828 165.279 383.599 165.302 383.378 165.258C383.156 165.214 382.953 165.105 382.794 164.946C382.634 164.786 382.526 164.583 382.482 164.362C382.438 164.141 382.46 163.912 382.547 163.703C382.633 163.495 382.779 163.317 382.967 163.192C383.154 163.067 383.375 163 383.6 163C384.23 162.99 384.74 163.51 384.74 164.14ZM248.57 181.72C248.575 181.872 248.549 182.024 248.493 182.166C248.438 182.309 248.355 182.438 248.249 182.548C248.143 182.657 248.015 182.744 247.875 182.804C247.735 182.863 247.584 182.894 247.431 182.894C247.278 182.894 247.127 182.864 246.987 182.804C246.846 182.745 246.719 182.658 246.613 182.548C246.507 182.439 246.423 182.309 246.368 182.167C246.313 182.025 246.287 181.873 246.291 181.721C246.3 181.424 246.423 181.143 246.636 180.936C246.849 180.73 247.134 180.614 247.43 180.614C247.727 180.614 248.011 180.729 248.224 180.936C248.437 181.142 248.561 181.423 248.57 181.72ZM162.03 167.9C162.03 168.125 161.963 168.346 161.838 168.533C161.713 168.721 161.535 168.867 161.326 168.953C161.118 169.039 160.889 169.062 160.668 169.018C160.446 168.974 160.243 168.865 160.084 168.706C159.924 168.546 159.816 168.343 159.772 168.122C159.728 167.901 159.75 167.672 159.837 167.464C159.923 167.255 160.069 167.077 160.257 166.952C160.444 166.827 160.665 166.76 160.89 166.76C161.52 166.75 162.03 167.26 162.03 167.9ZM497.32 237.5C497.325 237.652 497.299 237.804 497.243 237.946C497.188 238.089 497.105 238.218 496.999 238.328C496.893 238.437 496.765 238.524 496.625 238.584C496.485 238.643 496.334 238.674 496.181 238.674C496.028 238.674 495.877 238.644 495.737 238.584C495.596 238.525 495.469 238.438 495.363 238.328C495.257 238.219 495.173 238.089 495.118 237.947C495.063 237.805 495.037 237.653 495.041 237.501C495.05 237.204 495.173 236.923 495.386 236.716C495.599 236.51 495.883 236.394 496.18 236.394C496.477 236.394 496.761 236.509 496.974 236.716C497.187 236.922 497.311 237.203 497.32 237.5Z" fill="white"/>
<path d="M501.07 161.32L502.28 163.78L505.01 164.18L503.04 166.1L503.5 168.81L501.07 167.53L498.63 168.81L499.1 166.1L497.13 164.18L499.85 163.78L501.07 161.32Z" fill="#619FFF"/>
<path d="M219.03 61.1396L220.55 64.2297L223.96 64.7197L221.49 67.1197L222.08 70.5097L219.03 68.9097L215.99 70.5097L216.57 67.1197L214.11 64.7197L217.51 64.2297L219.03 61.1396ZM560 212.07L561.53 215.15L564.93 215.65L562.47 218.05L563.05 221.44L560 219.84L556.96 221.44L557.54 218.05L555.08 215.65L558.48 215.15L560 212.07Z" fill="#90C9FF"/>
<path d="M111.02 206.94C113.246 206.94 115.05 205.136 115.05 202.91C115.05 200.684 113.246 198.88 111.02 198.88C108.795 198.88 106.99 200.684 106.99 202.91C106.99 205.136 108.795 206.94 111.02 206.94Z" fill="#90C9FF"/>
<path d="M416.94 117.3C432.56 133 457.95 133.06 473.65 117.44C489.35 101.82 489.41 76.4399 473.8 60.7399C458.18 45.0399 432.79 44.9799 417.09 60.5999C401.39 76.2099 401.33 101.6 416.94 117.3Z" fill="url(#paint1_linear_140_1396)"/>
<path d="M493.17 393.6C492.89 391.23 506.51 343.85 521.66 322.78C536.81 301.71 553.84 262.76 553.84 262.76C553.84 262.76 559.57 297.4 543.82 320.14C528.07 342.89 521.38 354.12 521.38 354.12C521.38 354.12 532.38 331.94 558.69 330.41C585 328.88 578.23 352.97 578.23 352.97C578.23 352.97 549.21 311.48 488.95 405.35" fill="url(#paint2_linear_140_1396)"/>
<path d="M457.17 439.55C457.17 439.55 415.81 449.18 387.81 432.03C359.81 414.89 341.45 390.57 341.45 390.57C341.45 390.57 372.73 380.04 392.9 384.21C413.07 388.38 430.72 411.2 430.77 409.36C430.82 407.52 409.25 378.33 407.5 359.13C405.75 339.92 414.87 303.95 414.87 303.95C414.87 303.95 441.43 324.41 448.04 340.42C454.66 356.42 459.8 390.97 459.8 390.97C459.8 390.97 456.28 360.75 468.52 335.69C480.77 310.63 511.88 290.36 511.88 290.36C511.88 290.36 523.45 321.64 513.95 352.15C504.45 382.66 482.44 402.72 482.44 402.72C482.44 402.72 512.89 380.75 531.68 377.73C550.47 374.72 576.54 391.04 576.54 391.04C576.54 391.04 549.88 420.7 529.27 426.02C508.65 431.35 487.93 428.62 487.93 428.62C487.93 428.62 516.52 429.11 533.35 440.49C550.18 451.87 564.5 475.36 564.5 475.36C564.5 475.36 524.66 480.08 499.54 467.32C474.42 454.55 457.17 439.55 457.17 439.55Z" fill="url(#paint3_linear_140_1396)"/>
<path d="M496.54 429.23C491.38 428.68 487.93 428.61 487.93 428.61C487.93 428.61 491.27 429.04 496.54 429.23Z" fill="url(#paint4_linear_140_1396)"/>
<path d="M420.89 326.061C420.89 326.061 425.96 393.051 457.49 428.931C453.09 418.891 441.26 401.691 434.7 377.871C428.15 354.061 420.89 326.061 420.89 326.061Z" fill="url(#paint5_linear_140_1396)"/>
<path d="M456.63 431.74C456.63 431.74 397.34 414.57 374.43 403.9C357.42 396.47 349.49 392.69 349.49 392.69C349.49 392.69 362.34 403.17 399.04 417.32C435.74 431.46 456.63 431.74 456.63 431.74Z" fill="url(#paint6_linear_140_1396)"/>
<path d="M464.07 433.03C464.07 433.03 500.43 442.69 531.01 458.35C545.48 465.88 554.58 471.3 554.58 471.3C554.58 471.3 529.76 460.18 512.67 453.4C495.58 446.6 464.07 433.03 464.07 433.03Z" fill="url(#paint7_linear_140_1396)"/>
<path d="M182.48 374.25C182.76 371.88 169.14 324.5 153.99 303.43C138.84 282.36 121.81 243.41 121.81 243.41C121.81 243.41 116.08 278.05 131.83 300.79C147.58 323.54 154.27 334.77 154.27 334.77C154.27 334.77 143.27 312.59 116.96 311.06C90.6503 309.53 97.4202 333.62 97.4202 333.62C97.4202 333.62 126.44 292.13 186.7 386" fill="url(#paint8_linear_140_1396)"/>
<path d="M471.53 271.73C471.53 271.73 454.5 297.23 443.85 334.29C433.19 371.35 437.42 412.94 437.42 412.94" stroke="black" stroke-width="2.31" stroke-miterlimit="10"/>
<path d="M465.4 314.231C465.4 314.231 451.72 318.591 446.8 324.791C446.95 317.971 449.03 293.271 449.03 293.271M456.73 353.791C456.73 353.791 443.57 356.021 438.5 360.931C435.33 353.551 432.4 334.321 432.4 334.321M444.73 387.541C444.73 387.541 439.02 390.921 436.59 394.111C432.31 387.681 420.96 375.661 420.96 375.661" stroke="black" stroke-width="2.31" stroke-miterlimit="10"/>
<path d="M469.46 274.1C469.46 274.1 486.21 273.6 493.51 262.04C500.81 250.48 502.27 240.41 502.27 240.41C502.27 240.41 486.78 242.75 477.67 250.88C468.54 259.02 469.46 274.1 469.46 274.1ZM465.4 314.23C465.4 314.23 474.55 300.03 486.95 294.17C497.93 289.74 512.97 297.96 512.97 297.96C512.97 297.96 511.15 309.16 494.36 315.49C483.18 319.7 471.8 316.9 465.4 314.23ZM433.26 337.68C433.26 337.68 439.11 313.87 428.15 304.47C417.18 295.08 412.9 292.87 412.9 292.87C412.9 292.87 408.55 311.29 413.35 321.24C418.16 331.2 433.26 337.68 433.26 337.68ZM453.43 354.34C453.43 354.34 467.92 340.43 478.77 340.42C489.62 340.41 500.85 345.26 500.85 345.26C500.85 345.26 494.05 359.14 477.22 359.55C460.4 359.97 453.43 354.34 453.43 354.34ZM422.91 377.67C422.91 377.67 419.96 359.23 406.15 355.57C394.39 352.68 389.35 355.38 389.35 355.38C389.35 355.38 389.92 364.4 396.84 371.95C403.76 379.51 422.91 377.67 422.91 377.67ZM443.04 388.54C443.04 388.54 445.91 377.84 454.99 375.06C464.38 372.35 472.42 377.18 472.42 377.18C472.42 377.18 471.24 388.36 460.73 390.93C450.21 393.5 443.04 388.54 443.04 388.54ZM449.57 295.14C449.57 295.14 455.73 277.64 451.87 269.17C448.01 260.7 439.52 256.93 439.52 256.93C439.52 256.93 432.93 266.71 435.31 276.13C437.69 285.55 449.57 295.14 449.57 295.14Z" fill="#00759F"/>
<path d="M180.37 275.561C180.37 275.561 204.27 294.761 225.58 326.901C246.89 359.041 255.36 399.981 255.36 399.981" stroke="black" stroke-width="2.31" stroke-miterlimit="10"/>
<path d="M198.99 314.25C198.99 314.25 213.35 314.29 219.91 318.73C217.71 312.27 208.31 289.34 208.31 289.34M219.15 349.38C219.15 349.38 232.37 347.55 238.68 350.71C239.48 342.72 236.5 323.5 236.5 323.5M240.74 377.95C240.74 377.95 247.21 379.46 250.48 381.77C252.63 374.35 259.84 359.47 259.84 359.47" stroke="black" stroke-width="2.31" stroke-miterlimit="10"/>
<path d="M183.06 277.2C183.06 277.2 166.93 281.76 156.5 272.92C146.07 264.08 141.64 254.92 141.64 254.92C141.64 254.92 157.12 252.5 168.26 257.51C179.4 262.54 183.06 277.2 183.06 277.2ZM198.99 314.25C198.99 314.25 186 303.46 172.41 301.6C160.61 300.68 148.74 313.04 148.74 313.04C148.74 313.04 153.84 323.17 171.76 324.16C183.68 324.81 193.69 318.73 198.99 314.25ZM236.7 326.96C236.7 326.96 223.96 306.01 231.6 293.75C239.24 281.5 242.66 278.1 242.66 278.1C242.66 278.1 252.35 294.36 250.76 305.3C249.15 316.24 236.7 326.96 236.7 326.96ZM222.46 348.91C222.46 348.91 204.46 340 194.11 343.25C183.76 346.5 174.5 354.5 174.5 354.5C174.5 354.5 185.16 365.7 201.33 361.03C217.51 356.37 222.46 348.91 222.46 348.91ZM258.59 361.99C258.59 361.99 255.86 343.52 267.93 335.88C278.27 329.58 283.89 330.65 283.89 330.65C283.89 330.65 286.06 339.42 281.73 348.71C277.4 357.99 258.59 361.99 258.59 361.99ZM242.66 378.4C242.66 378.4 236.7 369.06 227.21 369.14C217.44 369.38 211.22 376.41 211.22 376.41C211.22 376.41 215.7 386.72 226.5 386C237.31 385.29 242.66 378.4 242.66 378.4ZM208.36 291.29C208.36 291.29 197.22 276.45 198.36 267.21C199.5 257.97 206.47 251.83 206.47 251.83C206.47 251.83 215.7 259.18 216.25 268.88C216.8 278.57 208.36 291.29 208.36 291.29Z" fill="#00759F"/>
<path d="M437.17 523.26C437.17 523.26 401.43 546.19 369.3 539.43C337.17 532.67 311.72 515.9 311.72 515.9C311.72 515.9 337.67 495.5 358.07 492.67C378.47 489.84 402.75 505.42 402.18 503.67C401.61 501.92 371.51 481.65 363.42 464.14C355.33 446.63 351.87 409.69 351.87 409.69C351.87 409.69 383.75 420.07 395.35 432.93C406.95 445.79 423.38 476.61 423.38 476.61C423.38 476.61 409.94 449.32 413.07 421.6C416.21 393.88 438.73 364.35 438.73 364.35C438.73 364.35 460.12 389.94 461.39 421.87C462.67 453.8 448.65 480.08 448.65 480.08C448.65 480.08 469.97 449.17 486.67 440.03C503.37 430.89 533.4 437.53 533.4 437.53C533.4 437.53 518.23 474.4 500.59 486.33C482.95 498.26 462.51 502.64 462.51 502.64C462.51 502.64 489.61 493.52 509.28 498.6C528.95 503.68 550.32 521.01 550.32 521.01C550.32 521.01 514.37 538.81 486.42 535.21C458.45 531.62 437.17 523.26 437.17 523.26Z" fill="url(#paint9_linear_140_1396)"/>
<path d="M470.81 500.35C465.77 501.56 462.49 502.65 462.49 502.65C462.49 502.65 465.77 501.94 470.81 500.35Z" fill="url(#paint10_linear_140_1396)"/>
<path d="M364.95 428.5C364.95 428.5 392.18 489.92 433.92 513.15C426.41 505.17 409.5 492.93 395.34 472.69C381.17 452.45 364.95 428.5 364.95 428.5Z" fill="url(#paint11_linear_140_1396)"/>
<path d="M434.05 516.09C434.05 516.09 372.44 519.78 347.28 517.41C328.76 516.11 320.03 515.21 320.03 515.21C320.03 515.21 335.65 520.78 374.97 521.8C414.28 522.83 434.05 516.09 434.05 516.09Z" fill="url(#paint12_linear_140_1396)"/>
<path d="M227.26 436.85C227.26 436.85 266.6 420.87 279.6 390.71C292.59 360.56 293.57 330.1 293.57 330.1C293.57 330.1 261.94 339.54 247.86 354.57C233.79 369.6 232.52 398.43 231.42 396.95C230.32 395.47 231.11 359.2 221.47 342.49C211.83 325.79 183.64 301.66 183.64 301.66C183.64 301.66 173.74 333.69 177.56 350.58C181.38 367.47 197.09 398.66 197.09 398.66C197.09 398.66 182.54 371.94 158.09 358.52C133.63 345.11 96.52 346.48 96.52 346.48C96.52 346.48 105.1 378.71 130.45 398.16C155.8 417.61 185.35 421.31 185.35 421.31C185.35 421.31 147.8 420.91 130.71 429.29C113.62 437.66 101.73 466.03 101.73 466.03C101.73 466.03 140.61 474.89 160.53 467.35C180.45 459.82 195.81 445.64 195.81 445.64C195.81 445.64 172.73 462.52 165.55 481.53C158.37 500.53 160.2 527.98 160.2 527.98C160.2 527.98 195.47 508.87 208.64 483.96C221.82 459.05 227.26 436.85 227.26 436.85Z" fill="url(#paint13_linear_140_1396)"/>
<path d="M189.14 451.12C193.04 447.7 195.81 445.65 195.81 445.65C195.81 445.65 193.34 447.92 189.14 451.12Z" fill="url(#paint14_linear_140_1396)"/>
<path d="M260.99 521.72C260.99 521.72 298.64 541.36 330.04 531.74C361.43 522.12 385.28 503.15 385.28 503.15C385.28 503.15 357.61 485.15 337.04 484.16C316.47 483.17 293.68 500.87 294.1 499.07C294.52 497.28 322.67 474.39 329.16 456.23C335.65 438.07 335.78 400.96 335.78 400.96C335.78 400.96 304.96 414.15 294.56 428C284.16 441.85 270.56 474.02 270.56 474.02C270.56 474.02 281.5 445.64 275.9 418.31C270.29 390.99 245.21 363.6 245.21 363.6C245.21 363.6 226.2 391 227.8 422.92C229.39 454.83 245.7 479.75 245.7 479.75C245.7 479.75 221.69 450.88 204.25 443.27C186.8 435.66 157.48 444.97 157.48 444.97C157.48 444.97 175.9 480.34 194.54 490.64C213.17 500.94 233.93 503.47 233.93 503.47C233.93 503.47 206.12 496.81 186.98 503.64C167.85 510.47 148.12 529.64 148.12 529.64C148.12 529.64 185.52 544.15 213.03 538.05C240.55 531.95 260.99 521.72 260.99 521.72Z" fill="url(#paint15_linear_140_1396)"/>
<path opacity="0.3" d="M245.21 363.6C245.21 363.6 270.29 390.99 275.9 418.31C281.5 445.63 270.56 474.02 270.56 474.02C270.56 474.02 284.16 441.85 294.56 428C304.96 414.15 335.78 400.96 335.78 400.96C335.78 400.96 335.64 438.07 329.16 456.23C322.67 474.39 294.52 497.28 294.1 499.07C293.68 500.87 316.48 483.16 337.04 484.16C357.61 485.15 385.28 503.15 385.28 503.15C385.28 503.15 361.43 522.13 330.04 531.74C298.64 541.36 260.99 521.72 260.99 521.72C260.99 521.72 260.64 521.9 259.98 522.21C263.18 452.54 245.21 363.6 245.21 363.6Z" fill="#00759F"/>
<path d="M225.44 501.909C230.57 502.669 233.93 503.459 233.93 503.459C233.93 503.459 230.59 503.049 225.44 501.909Z" fill="url(#paint16_linear_140_1396)"/>
<path d="M324.42 420.859C324.42 420.859 302.8 484.469 263.32 511.349C270.09 502.729 285.83 489.019 298.12 467.589C310.42 446.169 324.42 420.859 324.42 420.859Z" fill="url(#paint17_linear_140_1396)"/>
<path d="M263.46 514.289C263.46 514.289 325.16 512.449 350 507.829C368.33 504.879 376.95 503.199 376.95 503.199C376.95 503.199 361.89 510.139 322.83 514.689C283.76 519.239 263.46 514.289 263.46 514.289Z" fill="url(#paint18_linear_140_1396)"/>
<path d="M257.73 512.9C257.73 512.9 234.44 488.74 212.78 472.93C191.13 457.11 166.44 448.38 166.44 448.38C166.44 448.38 198.86 467.8 211.02 476.53C223.17 485.26 257.73 512.9 257.73 512.9Z" fill="url(#paint19_linear_140_1396)"/>
<path d="M255.18 222.529C255.18 222.529 259.38 243.299 237.94 254.649C230.77 257.139 217.39 257.369 209.96 250.279C220.87 255.579 230.58 256.469 237.76 253.669C241.83 250.259 253.55 245.809 255.18 222.529Z" fill="black"/>
<path d="M243.69 224.67C243.69 224.67 248.38 242.44 237.65 254.19C227 251.84 218.18 243.71 215.61 237.93C219.06 241.9 228.48 251.27 237.16 253.37C241.22 246.53 245.25 237.89 243.69 224.67Z" fill="black"/>
<path d="M236.42 234.47C236.42 234.47 241.84 246.8 238.03 253.76C236 252.57 226.22 243.72 223.45 230.17C227.51 237.73 228.94 244.47 237.43 251.79C238.51 247.17 236.78 236.32 236.42 234.47Z" fill="black"/>
<path d="M255.44 227.04C255.44 227.04 258.55 225.21 258.9 220.54C259.24 215.86 256.47 214.19 255.02 216.19C254.39 214.78 253.76 215.48 253.75 216.39C252.88 215.51 251.15 215.46 250.93 217.5C250.71 219.54 252.48 226.62 255.44 227.04Z" fill="url(#paint20_linear_140_1396)"/>
<path d="M243.99 228.31C243.99 228.31 247.54 226.08 245.91 220.85C244.9 218.16 243.52 217.95 243.2 218.66C242.81 218.34 241.15 218.09 241.06 219.52C240.23 219.08 238.8 220.26 239.19 221.92C239.58 223.58 240.5 227.5 243.99 228.31Z" fill="url(#paint21_linear_140_1396)"/>
<path d="M237.43 238.73C237.43 238.73 240.25 236.85 238.61 232.38C237.56 229.34 236.08 230.36 236.06 231C235.49 230.15 234.53 230.31 234.42 231.06C233.6 230.67 232.56 231.84 232.95 233.49C233.33 235.15 234.55 238.51 237.43 238.73Z" fill="url(#paint22_linear_140_1396)"/>
<path d="M225.04 234.4C225.04 234.4 227.76 233.1 227.01 228.91C226.27 224.73 223.97 222.08 223.11 223.76C222.27 223.12 220.86 221.9 219.58 224.32C218.05 224.68 218.3 227.05 218.98 228.79C219.65 230.53 222.13 234.52 225.04 234.4Z" fill="url(#paint23_linear_140_1396)"/>
<path d="M214.94 253.219C214.94 253.219 215.75 250.319 212.11 248.129C208.47 245.939 204.96 245.929 205.67 247.679C204.64 247.889 202.79 248.149 203.77 250.709C203.03 252.099 204.98 253.469 206.74 254.109C208.48 254.729 213.12 255.489 214.94 253.219Z" fill="url(#paint24_linear_140_1396)"/>
<path d="M217.95 240.74C217.95 240.74 219.26 239.41 217.64 236.55C216.58 234.41 213.29 230.79 212.78 233.56C211.25 233.59 209.5 233.19 210.23 236.29C208.84 237.1 210.08 238.57 211.49 240C212.9 241.44 216.57 241.93 217.95 240.74Z" fill="url(#paint25_linear_140_1396)"/>
<path d="M238.63 252.449C238.63 252.449 238.69 252.559 238.8 252.769C240.69 256.399 257.51 289.419 250.76 299.659C251.43 294.449 250.61 287.929 245.99 274.779C241.37 261.629 237.17 253.379 237.17 253.379L238.7 252.559" fill="black"/>
<path d="M403.69 229.689C403.69 229.689 399.49 250.459 420.93 261.809C428.11 264.299 441.48 264.529 448.91 257.439C438 262.739 428.29 263.629 421.11 260.829C417.05 257.429 405.33 252.979 403.69 229.689Z" fill="black"/>
<path d="M415.18 231.84C415.18 231.84 410.49 249.61 421.22 261.36C431.87 259.01 440.69 250.88 443.26 245.1C439.81 249.07 430.39 258.44 421.71 260.54C417.65 253.7 413.63 245.06 415.18 231.84Z" fill="black"/>
<path d="M422.45 241.64C422.45 241.64 417.03 253.97 420.84 260.93C422.87 259.74 432.65 250.89 435.42 237.34C431.36 244.9 429.93 251.64 421.44 258.96C420.37 254.34 422.1 243.49 422.45 241.64Z" fill="black"/>
<path d="M403.43 234.21C403.43 234.21 400.32 232.38 399.97 227.71C399.63 223.03 402.4 221.36 403.85 223.36C404.48 221.95 405.11 222.65 405.12 223.56C405.99 222.68 407.72 222.63 407.94 224.67C408.17 226.71 406.39 233.78 403.43 234.21Z" fill="url(#paint26_linear_140_1396)"/>
<path d="M414.89 235.48C414.89 235.48 411.34 233.25 412.97 228.02C413.98 225.33 415.36 225.12 415.68 225.83C416.07 225.51 417.73 225.26 417.82 226.69C418.65 226.25 420.08 227.43 419.69 229.09C419.3 230.75 418.38 234.67 414.89 235.48Z" fill="url(#paint27_linear_140_1396)"/>
<path d="M421.45 245.9C421.45 245.9 418.63 244.02 420.27 239.55C421.32 236.51 422.8 237.53 422.82 238.17C423.39 237.32 424.35 237.48 424.46 238.23C425.28 237.84 426.32 239.01 425.93 240.66C425.55 242.31 424.32 245.68 421.45 245.9Z" fill="url(#paint28_linear_140_1396)"/>
<path d="M433.84 241.559C433.84 241.559 431.12 240.259 431.87 236.069C432.61 231.889 434.91 229.239 435.77 230.919C436.61 230.279 438.02 229.059 439.3 231.479C440.83 231.839 440.58 234.209 439.91 235.949C439.23 237.699 436.74 241.689 433.84 241.559Z" fill="url(#paint29_linear_140_1396)"/>
<path d="M443.94 260.38C443.94 260.38 443.13 257.48 446.77 255.29C450.41 253.1 453.92 253.09 453.21 254.84C454.24 255.05 456.09 255.31 455.11 257.87C455.85 259.26 453.9 260.63 452.14 261.27C450.39 261.9 445.76 262.66 443.94 260.38Z" fill="url(#paint30_linear_140_1396)"/>
<path d="M440.93 247.91C440.93 247.91 439.62 246.58 441.24 243.72C442.3 241.58 445.59 237.96 446.1 240.73C447.63 240.76 449.38 240.36 448.65 243.46C450.04 244.27 448.8 245.74 447.39 247.17C445.98 248.61 442.31 249.1 440.93 247.91Z" fill="url(#paint31_linear_140_1396)"/>
<path d="M420.25 259.609C420.25 259.609 420.19 259.719 420.08 259.929C418.19 263.559 401.37 296.579 408.12 306.819C407.45 301.609 408.27 295.089 412.89 281.939C417.51 268.789 421.71 260.539 421.71 260.539L420.18 259.719" fill="black"/>
<path d="M341.51 595.69C503.567 595.69 634.94 585.343 634.94 572.58C634.94 559.816 503.567 549.47 341.51 549.47C179.453 549.47 48.0801 559.816 48.0801 572.58C48.0801 585.343 179.453 595.69 341.51 595.69Z" fill="url(#paint32_linear_140_1396)"/>
<path d="M228.08 568.53L231.71 556.39C231.71 556.39 232.55 552.62 239.94 552.62H384.32C384.32 552.62 391.16 552.32 393.11 557.36C395.71 564.07 396.46 567.4 396.46 567.4C396.46 567.4 398.83 572.56 390.04 572.56H231.99C231.99 572.56 228.08 572.86 228.08 568.53Z" fill="url(#paint33_linear_140_1396)"/>
<path d="M231.98 572.58H390.03C396.18 572.58 396.86 570.05 396.72 568.53H228.08C228.08 572.86 231.98 572.58 231.98 572.58Z" fill="black"/>
<path d="M486.24 517.06C486.24 526.3 478.74 533.8 469.5 533.8H153.68C144.44 533.8 136.94 526.3 136.94 517.06V316.93C136.94 307.69 144.44 300.19 153.68 300.19H469.5C478.75 300.19 486.24 307.68 486.24 316.93V517.06Z" fill="url(#paint34_linear_140_1396)"/>
<path d="M154.05 316.56H470.99V496.98H154.05V316.56Z" fill="url(#paint35_linear_140_1396)"/>
<path d="M154.05 316.56H470.99V351.13H154.05V316.56Z" fill="url(#paint36_linear_140_1396)"/>
<path opacity="0.5" d="M397.63 328.89C397.63 330.55 396.29 331.89 394.63 331.89H201.43C199.77 331.89 198.43 330.55 198.43 328.89C198.43 327.23 199.77 325.89 201.43 325.89H394.63C396.29 325.89 397.63 327.23 397.63 328.89Z" fill="url(#paint37_linear_140_1396)"/>
<path opacity="0.5" d="M316.05 341.78C316.05 343.44 315.26 344.78 314.28 344.78H200.21C199.23 344.78 198.44 343.44 198.44 341.78C198.44 340.12 199.23 338.78 200.21 338.78H314.28C315.26 338.78 316.05 340.12 316.05 341.78Z" fill="url(#paint38_linear_140_1396)"/>
<path d="M174.53 346.69C181.627 346.69 187.38 340.937 187.38 333.84C187.38 326.743 181.627 320.99 174.53 320.99C167.433 320.99 161.68 326.743 161.68 333.84C161.68 340.937 167.433 346.69 174.53 346.69Z" fill="url(#paint39_linear_140_1396)"/>
<path d="M174.1 334.56C177.452 334.56 180.17 331.842 180.17 328.49C180.17 325.138 177.452 322.42 174.1 322.42C170.747 322.42 168.03 325.138 168.03 328.49C168.03 331.842 170.747 334.56 174.1 334.56Z" fill="white"/>
<path d="M184.25 342.22C182.45 338.41 178.59 335.77 174.1 335.77C169.87 335.77 166.19 338.11 164.28 341.56C166.62 344.67 170.34 346.68 174.53 346.68C178.42 346.68 181.89 344.95 184.25 342.22Z" fill="white"/>
<path d="M333.92 374.16C333.92 382.42 325.68 389.12 315.51 389.12C305.34 389.12 297.1 382.42 297.1 374.16C297.1 365.9 305.34 359.2 315.51 359.2C325.67 359.21 333.92 365.9 333.92 374.16Z" fill="black"/>
<path d="M257.3 497.62C257.3 497.62 259.47 470 280.04 462.69C300.62 455.38 337.71 456.19 352.06 462.69C366.41 469.19 372.64 478.12 374.53 486.52C376.43 494.91 376.16 497.62 376.16 497.62H257.3Z" fill="#431CA3"/>
<path d="M317.57 485.51C328.17 485.51 336.76 476.96 336.76 466.42C336.76 463.62 336.15 460.97 335.06 458.57C324.52 457.24 311.8 457.13 300.14 458.43C298.977 460.93 298.376 463.654 298.38 466.41C298.38 476.96 306.97 485.51 317.57 485.51Z" fill="url(#paint40_linear_140_1396)"/>
<path d="M300.14 458.44C300.14 458.44 305.59 455.12 305.59 448.24C305.59 441.36 329.46 446.22 329.46 446.22C329.46 446.22 331.83 456.15 335.07 458.57" fill="url(#paint41_linear_140_1396)"/>
<path d="M295.74 444.56C291.81 437.39 292.49 435.22 292.49 435.22C292.49 435.22 287.48 431.84 287.21 426.15C286.94 420.46 288.56 419.92 288.56 419.92H293.16C293.16 419.92 293.43 411.41 298.37 405.51C303.31 399.61 304.53 398.4 304.53 398.4C304.53 398.4 313.06 403.42 321.18 405.51C329.3 407.6 336.88 411.26 338.91 415.45L340.94 419.65C340.94 419.65 345.68 417.89 346.35 421C347.03 424.11 346.21 430.48 344.45 431.83C342.69 433.18 341.07 432.91 341.07 432.91C341.07 432.91 339.31 442.93 334.03 448.88C328.75 454.84 322.83 459.57 317.55 459.57C310.25 459.58 299.67 451.73 295.74 444.56Z" fill="url(#paint42_linear_140_1396)"/>
<path d="M292.49 428.99C292.49 428.99 285.18 418.3 284.64 408.41C284.1 398.53 286.26 388.38 291.14 384.04C296.01 379.71 302.92 380.25 302.92 380.25C302.92 380.25 308.06 374.7 322.68 376.6C337.3 378.5 342.17 386.75 345.69 394.74C349.21 402.73 345.98 412.55 345.01 415.86C344.05 419.17 341.35 426.28 341.35 426.28C341.35 426.28 341.15 418.34 338.07 414.12C334.99 409.9 326.61 407.13 321.86 405.69C317.11 404.25 309.84 401.3 307.18 399.85L304.53 398.4C304.53 398.4 296.55 406.25 295.12 411.1C293.7 415.94 292.49 428.99 292.49 428.99Z" fill="black"/>
<path d="M307.12 508.88C307.12 506.41 309.12 504.42 311.58 504.42C314.04 504.42 316.04 506.42 316.04 508.88C316.04 511.34 314.04 513.34 311.58 513.34C309.12 513.34 307.12 511.34 307.12 508.88Z" stroke="#231F20" stroke-width="3.678" stroke-miterlimit="10" stroke-linecap="round" stroke-linejoin="round"/>
<path d="M137.01 518.55C137.76 527.1 144.94 533.8 153.68 533.8H469.5C478.24 533.8 485.42 527.1 486.17 518.55H137.01Z" fill="url(#paint43_linear_140_1396)"/>
<path d="M296.99 533.8H327.68V559.19H296.99V533.8Z" fill="url(#paint44_linear_140_1396)"/>
<path d="M336.84 215.36C336.84 215.36 341.39 219.08 342.76 219.68C344.13 220.29 349.28 221.05 349.97 222.18C350.65 223.32 350.27 231.89 351.26 235.53C352.25 239.17 354.14 246.53 352.93 249.64C351.72 252.75 349.59 254.57 349.59 255.63C349.59 256.69 348.91 268.22 348.91 268.22C348.91 268.22 333.13 272.32 324.26 276.41C315.39 280.5 310.3 284.68 310.3 284.68C310.3 284.68 313.26 277.78 314.78 272.39C316.3 267 318.65 257.67 318.57 254.64C318.49 251.61 311.44 217.62 311.44 217.62C311.44 217.62 313.87 218 315.08 217.77C316.29 217.54 321.68 215.57 323.5 214.51C325.32 213.45 325.93 212.54 325.93 212.54L336.84 215.36Z" fill="url(#paint45_linear_140_1396)"/>
<path d="M358.38 239.26C358.38 239.26 392.97 236.53 392.67 237.29C392.37 238.05 385.24 265.66 385.24 265.66L350.19 269.76L358.38 239.26Z" fill="url(#paint46_linear_140_1396)"/>
<path d="M392.67 237.29L391.53 236.38L357.17 238.12L348.9 269.22L350.19 269.75L358.38 239.26L392.67 237.29ZM349.12 267.86L336.76 267.18V268.92L348.9 269.22L349.12 267.86Z" fill="black"/>
<path d="M336.76 267.18L349.63 265.96L349.12 267.86L336.76 267.18Z" fill="url(#paint47_linear_140_1396)"/>
<path d="M351.35 259.18C351.35 259.18 349.68 258.93 347.46 259.18L345.24 259.43C345.24 259.43 344.63 261.86 344.73 263.48C344.83 265.1 344.78 265.91 344.78 265.91L349.58 265.61L351.35 259.18Z" fill="url(#paint48_linear_140_1396)"/>
<path d="M316.66 217.33C318.77 216.63 322.12 215.33 323.48 214.53C325.3 213.47 325.91 212.56 325.91 212.56L336.83 215.37C336.83 215.37 341.38 219.09 342.75 219.69C343.07 219.83 343.6 219.98 344.23 220.14C344.21 220.19 344.19 220.22 344.19 220.22C344.19 220.22 343.58 226.21 342.07 229.78C340.55 233.35 338.35 233.8 335.93 234.1C333.51 234.4 326.98 228.79 323.34 224.85C320.72 222.01 317.99 218.87 316.66 217.33Z" fill="url(#paint49_linear_140_1396)"/>
<path d="M328.49 182.75C328.49 182.75 322.27 181.76 320.98 184.95C319.69 188.14 320.22 198.91 319.01 202.4C317.8 205.89 317.49 208.01 317.27 210.06C317.04 212.11 316.89 212.49 315.9 213.78C314.91 215.07 314.23 217.57 314.23 217.57C314.23 217.57 315.44 217.95 319.08 216.51C322.72 215.07 325.91 212.57 325.91 212.57L328.49 182.75Z" fill="black"/>
<path d="M346.09 194.12C346.09 194.12 345.18 199.28 344.27 201.4C343.36 203.52 342.98 204.59 342.98 204.59C342.98 204.59 342.15 210.51 338.66 214.53C335.17 218.55 333.12 218.32 331.07 217.64C329.02 216.96 325.08 213.09 324.62 208.99C324.16 204.89 324.16 204.51 324.16 204.51C324.16 204.51 321.35 204.28 320.82 201.32C320.29 198.36 321.12 195.4 323.02 196.09C324.92 196.77 325.14 201.63 325.14 201.63C325.14 201.63 328.55 194.5 330.15 193.13C331.74 191.76 336.75 191.01 339.25 191.76C341.77 192.53 346.09 194.12 346.09 194.12Z" fill="url(#paint50_linear_140_1396)"/>
<path d="M346.09 194.12C346.09 194.12 347.08 190.78 343.81 186.23C340.55 181.68 334.18 179.48 329.25 182.36C324.32 185.24 322.35 189.87 321.97 192.15C321.59 194.43 321.44 196.32 321.44 196.32C321.44 196.32 322.65 195.41 323.72 196.78C324.78 198.15 325.16 201.63 325.16 201.63C325.16 201.63 326.37 201.25 327.21 199.05C328.04 196.85 330.02 193.13 331.69 192.45C333.36 191.77 336.39 191.31 338.14 191.69C339.89 192.07 346.09 194.12 346.09 194.12Z" fill="black"/>
<path d="M349.96 222.19C349.96 222.19 353.83 220.8 355.55 224.74C357.27 228.68 359.49 237.99 359.49 237.99L357.16 238.12L352.81 253.67L351.9 251.55C351.9 251.55 353.72 250.24 353.21 245.78C352.7 241.33 350.88 234.76 350.68 232.33C350.49 229.9 349.96 222.19 349.96 222.19Z" fill="url(#paint51_linear_140_1396)"/>
<path d="M310.28 284.7C310.28 284.7 320.95 277.04 328.94 274.31C336.93 271.58 345.53 269.25 345.53 269.25L348.89 269.22L350.58 269.85L367.07 267.73C367.07 267.73 371.92 273.39 375.26 284.62C378.6 295.85 379.41 304.54 380.22 307.48C381.03 310.41 382.75 313.65 382.75 313.65C382.75 313.65 380.12 315.98 377.39 317.29L374.66 318.61C374.66 318.61 367.28 305.26 365.66 299.59L364.04 293.93C364.04 293.93 362.12 282.5 356.25 281.39C350.38 280.28 348.16 287.36 346.34 291.5C344.52 295.65 339.97 301.21 336.63 301.82C333.29 302.43 319.54 302.02 316.6 300.81C313.67 299.59 309.43 293.47 310.28 284.7Z" fill="url(#paint52_linear_140_1396)"/>
<path d="M338.17 301.24C341.25 299.6 344.79 295.04 346.34 291.5C348.16 287.35 350.39 280.27 356.25 281.39C362.12 282.5 364.04 293.93 364.04 293.93C364.04 293.93 364.04 293.94 364.35 295.03C364.34 295.16 364.34 295.24 364.34 295.24C364.34 295.24 365.55 305.35 364.44 313.04C363.33 320.73 359.96 340.75 359.96 340.75C359.96 340.75 351.59 340.45 351.59 340.14C351.59 339.83 350.88 328.31 350.17 322.95C349.46 317.59 348.75 310.81 348.75 306.46C348.75 302.11 348.85 300.8 348.85 300.8L338.13 301.41C338.15 301.41 338.16 301.35 338.17 301.24Z" fill="url(#paint53_linear_140_1396)"/>
<path d="M359.59 340.76C359.59 340.76 359.29 345.31 359.29 347.51C359.29 349.71 359.75 356.08 358.3 360.33C356.86 364.58 355.34 367.69 351.55 368.07C347.76 368.45 346.32 366.33 346.16 363.37C346.01 360.41 346.54 356.92 348.06 351.84C349.58 346.76 351.55 344.25 351.55 344.25L352.08 340.31L359.59 340.76Z" fill="black"/>
<path d="M349.59 347.73C350.65 345.4 351.55 344.25 351.55 344.25L352.08 340.31L359.59 340.77C359.59 340.77 359.29 345.32 359.29 347.52C359.29 348.25 359.34 349.44 359.35 350.86C358.44 350.57 357.4 350.22 357.24 350.1C356.94 349.87 355.57 347.52 353.75 347.98C351.93 348.44 351.09 348.89 351.09 348.89L349.59 347.73Z" fill="white"/>
<path d="M382.5 314.06L385.61 318.16C385.61 318.16 386.37 318.16 387.58 318.46C388.79 318.76 397.21 320.43 399.11 320.05C401.01 319.67 404.57 319.44 405.71 320.35C406.85 321.26 407.15 323.16 407.15 323.16C407.15 323.16 403.13 327.33 399.11 328.7C395.09 330.07 386.59 332.49 384.62 333.33C382.65 334.16 378.1 334.62 378.1 334.62C378.1 334.62 376.28 329.23 375.9 327.34C375.52 325.44 376.13 322.41 376.13 322.41L374.76 318.39C374.76 318.38 380.38 316.33 382.5 314.06Z" fill="black"/>
<path d="M385.61 318.15C385.61 318.15 385.15 321.94 384.55 322.63C383.94 323.31 381.06 325.13 380.38 324.83C379.7 324.53 378.56 322.48 377.95 322.4C377.34 322.32 376.13 322.4 376.13 322.4L374.66 318.61C374.66 318.61 377.8 317.09 379.62 316.03C381.44 314.97 382.5 314.06 382.5 314.06L385.61 318.15Z" fill="white"/>
<path d="M345.23 259.44C345.23 259.44 329.17 257.85 325.53 256.41C321.89 254.97 319.99 252.09 319.76 250.42C319.53 248.75 318.47 229.71 317.56 225.77C316.65 221.83 313.99 217.73 310.66 217.73C307.32 217.73 305.58 222.36 305.35 229.49C305.12 236.62 307.32 251.94 309.37 256.34C311.42 260.74 314.26 262.55 318.02 264.08C323.79 266.43 344.77 265.93 344.77 265.93C344.77 265.93 344.83 262.32 345.23 259.44Z" fill="url(#paint54_linear_140_1396)"/>
<path d="M465.07 398.31C465.07 398.31 458.39 402.33 457.26 405.21C456.12 408.09 452.56 419.32 450.89 425.39C449.22 431.46 445.96 441.09 446.79 443.44C447.62 445.79 455.89 452.09 455.89 452.09C455.89 452.09 457.1 450.42 458.24 448.45C459.38 446.48 460.29 445.57 460.29 445.57L455.13 440.56L463.55 422.51C463.55 422.51 466.28 428.88 466.81 431.92C467.34 434.96 466.89 441.17 465.67 444.21C464.46 447.24 460.06 457.11 458.92 462.04C457.78 466.97 460.89 499.67 460.89 499.67C460.89 499.67 467.87 502.17 482.51 501.72C497.15 501.26 505.12 498.84 505.12 498.84C505.12 498.84 499.28 469.1 497.91 458.56C496.54 448.02 495.94 438.76 495.94 434.97C495.94 431.18 496.47 429.66 496.47 429.66C496.47 429.66 497.38 428.07 497.84 426.93L498.3 425.79C498.3 425.79 503.99 436.11 506.42 437.24C508.85 438.38 512.03 437.39 513.93 434.66C515.83 431.93 522.35 421.61 522.35 421.61L516.43 415.69L509.6 424.34C509.6 424.34 501.41 401.96 499.89 399.53C498.37 397.1 496.55 395.81 493.75 395.36C490.94 394.9 489.81 395.44 489.81 395.44L465.07 398.31Z" fill="url(#paint55_linear_140_1396)"/>
<path d="M470.38 409.23C470.38 409.23 472.28 421.44 473.04 433.13C473.8 444.81 473.04 454.83 473.04 454.83L462.72 451.8L462.11 425.55L459.08 431.92L458.67 443.8L460.24 445.27L458.42 447.95L458.32 453.92C458.32 453.92 455.44 456.04 453.92 460.6C452.4 465.16 452.1 469.4 452.1 469.4L453.01 470.01C453.01 470.01 451.8 476.99 452.55 479.26C453.31 481.54 456.65 486.09 461.5 487.15C466.35 488.21 473.49 488.06 475.76 487C478.03 485.94 478.95 483.36 478.95 480.78C478.95 478.2 478.49 460.75 476.52 444.06C474.55 427.37 473.18 412.2 473.18 412.2L470.38 409.23Z" fill="#881FA4"/>
<path d="M478.27 376.08C478.27 376.08 480.24 375.32 481.15 373.27C482.06 371.22 483.58 370.16 485.02 369.63C486.46 369.1 489.34 367.58 490.48 365.46C491.62 363.34 492.38 361.44 492.38 361.44C492.38 361.44 495.64 364.02 495.95 366.29C496.25 368.57 495.87 372.43 495.87 373.42C495.87 374.41 497.46 377.67 496.02 381.16C494.58 384.65 491.01 390.41 489.72 391.02C488.43 391.63 486.69 391.02 486.69 391.02L486.39 394.21L489.8 395.42C489.8 395.42 492.91 402.47 492.91 404.37C492.91 406.27 491.01 409.3 486.69 408.16C482.37 407.02 479.64 404.52 478.42 403.15C477.2 401.78 476.6 400.72 476.6 400.72C476.6 400.72 478.04 396.93 478.12 394.35C478.2 391.77 478.27 388.28 478.27 386.69C478.27 385.1 477.28 381.68 477.28 381.68C477.28 381.68 473.56 378.57 473.94 376.14C474.32 373.71 477.36 373.58 478.27 376.08Z" fill="url(#paint56_linear_140_1396)"/>
<path d="M500.49 367.74C499.28 362.81 497.46 359.77 495.71 358.03C493.97 356.29 487.29 356.21 487.29 356.21C487.29 356.21 480.92 354.84 475.99 356.74C471.06 358.64 465.6 364.93 463.85 374.26C462.11 383.59 462.86 391.63 464.38 396.79C465.9 401.95 468.17 405.89 470.37 409.23C472.57 412.57 477.12 415.75 477.12 415.53C477.12 415.3 475.91 402.86 476.59 400.74C476.59 400.74 478.03 396.95 478.11 394.37C478.19 391.79 478.26 388.3 478.26 386.71C478.26 385.12 477.27 381.7 477.27 381.7C477.27 381.7 473.55 378.59 473.93 376.16C474.31 373.73 477.34 373.58 478.25 376.08C478.25 376.08 480.22 375.32 481.13 373.27C482.04 371.22 483.56 370.16 485 369.63C486.44 369.1 489.32 367.58 490.46 365.46C491.6 363.34 492.36 361.44 492.36 361.44C492.36 361.44 495.62 364.02 495.93 366.29C496.23 368.57 495.85 372.43 495.85 373.42C495.85 374.41 497.44 377.67 496 381.16C494.56 384.65 490.99 390.41 489.7 391.02C488.41 391.63 486.67 391.02 486.67 391.02L486.37 394.21L486.94 394.41C487.01 394.38 487.05 394.36 487.05 394.36H490.01C490.01 394.36 494.64 391.4 496.46 387.76C498.29 384.12 501.71 372.67 500.49 367.74Z" fill="black"/>
<path d="M456.49 451.11C456.49 451.11 465.9 457.79 466.43 458.47C466.96 459.15 469.09 464.16 474.02 465.22C478.95 466.28 479.05 465.75 479.05 465.75C479.05 465.75 481.45 463.02 480.47 462.11C479.48 461.2 476.15 459.61 475.16 458.47C474.17 457.33 473.14 455.54 473.14 455.54V454.07L468.87 453.92L459.69 446.11C459.68 446.1 456.95 449.74 456.49 451.11Z" fill="white"/>
<path d="M516.8 416.29C516.8 416.29 520.37 410.6 520.37 410.3C520.37 410 519 405.82 519.31 403.7C519.61 401.58 519.54 395.89 520.45 396.49C521.36 397.1 522.19 398.99 522.19 398.99L522.95 400.2C522.95 400.2 536.15 393.68 536.6 394.06C537.06 394.44 537.51 395.12 536.98 395.88C536.45 396.64 532.96 398.76 532.96 398.76C532.96 398.76 534.55 399.52 534.17 401.11C533.79 402.7 532.96 401.87 532.96 402.1C532.96 402.33 533.11 404.3 531.75 406.42C530.38 408.54 526.29 412.11 526.29 412.11L521.66 420.61L516.8 416.29Z" fill="url(#paint57_linear_140_1396)"/>
<path d="M524.69 392.09L519.23 407.64C519.23 407.64 519.15 408.7 520.29 408.85C521.43 409 527.34 408.77 527.34 408.77C527.34 408.77 528.17 408.54 528.48 407.33C528.78 406.12 532.73 392.92 532.73 392.92C532.73 392.92 532.65 392.24 531.97 392.09C531.29 391.94 524.69 392.09 524.69 392.09Z" fill="black"/>
<path d="M524.99 393.46L520.75 406.28L527.12 406.2L530.99 393.53L524.99 393.46Z" fill="white"/>
<path d="M532.5 398.69C532.5 398.69 528.78 400.06 527.95 400.81C527.12 401.57 527.27 402.25 527.87 402.4C528.48 402.55 533.56 401.94 533.56 401.94C533.56 401.94 534.17 401.56 534.24 400.42C534.31 399.28 533.26 398.77 532.5 398.69Z" fill="white"/>
<path d="M532.66 402.18C532.66 402.18 528.41 402.26 527.58 403.01C526.75 403.77 527.81 404.75 528.41 404.91C529.02 405.06 532.73 404.61 532.73 404.61C532.73 404.61 533.94 404.53 534.02 403.4C534.1 402.25 533.41 402.25 532.66 402.18ZM531.97 404.91C531.97 404.91 528.66 404.97 528 405.56C527.35 406.15 528.18 406.92 528.65 407.04C529.12 407.16 532.02 406.8 532.02 406.8C532.02 406.8 532.97 406.74 533.03 405.85C533.1 404.97 532.56 404.97 531.97 404.91Z" fill="white"/>
<path d="M463.73 500.39C463.73 500.39 465.45 511.21 465.35 513.44C465.25 515.67 464.95 532.15 465.65 538.12C466.36 544.09 469.19 559.26 469.39 562.6C469.59 565.94 469.19 572.31 468.78 575.24C468.37 578.17 467.97 581.92 468.98 582.62C469.99 583.33 476.57 582.82 476.97 582.22C477.37 581.61 474.85 571.3 474.85 568.87C474.85 566.44 476.37 545.3 476.57 540.04C476.77 534.78 475.96 528.81 476.27 523.55C476.57 518.29 477.08 513.44 477.89 507.77C478.7 502.1 479 501.7 478.7 501.7C478.39 501.7 468.89 502.11 463.73 500.39Z" fill="url(#paint58_linear_140_1396)"/>
<path d="M486.28 501.6C486.28 501.6 489.42 512.52 489.72 516.67C490.02 520.82 489.92 527.69 491.64 533.06C493.36 538.42 500.24 551.06 501.65 554.4C503.07 557.74 504.18 560.57 503.47 562.09C502.76 563.61 502.16 563.91 501.55 565.53C500.94 567.15 501.95 569.37 501.95 569.37C501.95 569.37 508.63 570.28 510.24 572.51C511.86 574.74 515.4 578.58 517.02 578.98C518.64 579.38 521.57 579.18 522.38 578.78C523.19 578.38 523.09 577.06 521.27 576.35C519.45 575.64 517.73 575.14 516.52 573.32C515.31 571.5 510.35 563.21 509.44 559.67C508.53 556.13 501.95 517.19 502.06 513.95C502.16 510.71 502.57 511.02 502.16 506.36C501.75 501.7 501.65 499.68 501.65 499.68C501.65 499.68 489.82 501.81 486.28 501.6Z" fill="url(#paint59_linear_140_1396)"/>
<path d="M503.75 579.46L505.34 579.54C505.34 579.54 505.64 572.18 506.33 572.26C507.01 572.34 509.59 572.64 511.26 574.92C512.93 577.2 514.83 579.7 516.42 579.85C518.01 580 523.25 579.93 523.47 579.77C523.7 579.62 524.25 578.86 522.38 578.78C520.51 578.7 516.56 578.7 516.56 578.7C516.56 578.7 512.92 575.89 512.01 574.53C511.1 573.16 510.11 571.5 507.91 570.74C505.71 569.98 501.94 569.37 501.94 569.37C501.94 569.37 501.31 570.74 501.69 571.19C502.07 571.65 503.21 572.33 503.36 573.62C503.53 574.91 503.75 579.46 503.75 579.46Z" fill="url(#paint60_linear_140_1396)"/>
<path d="M510.51 572.25C510.51 572.25 511.57 572.1 512.63 571.19C513.69 570.28 514 569.22 514 569.22C514 569.22 516.81 574.23 517.94 574.83C519.07 575.43 522.11 576.2 522.57 577.03C523.03 577.86 522.39 578.77 522.39 578.77C522.39 578.77 517.86 579.38 516.57 578.69C515.28 578.01 510.25 572.49 510.25 572.49" fill="url(#paint61_linear_140_1396)"/>
<path d="M468.78 575.24C468.78 575.24 471.89 576.81 473.71 576.05C475.53 575.29 475.83 574.61 475.83 574.61C475.83 574.61 476.89 580.53 476.89 581.21C476.89 581.89 477.88 582.42 475.3 582.8C472.72 583.18 468.62 583.18 468.4 581.89C468.18 580.6 468.78 575.24 468.78 575.24Z" fill="url(#paint62_linear_140_1396)"/>
<path d="M498.29 425.77C498.29 425.77 500.54 423.72 500.14 418.87C499.74 414.02 497.71 406.33 496.5 402.28C495.29 398.23 503.58 429.59 508.03 431.81C512.48 434.03 515.31 432.42 515.31 432.42C515.31 432.42 512.28 438.29 507.83 437.68C503.38 437.07 498.52 426.55 498.52 426.55" fill="url(#paint63_linear_140_1396)"/>
<path d="M114.33 408.2C114.33 408.2 112.1 423.57 109.68 439.05C107.26 454.53 106.24 459.99 106.75 462.11C107.26 464.23 107.86 465.04 107.86 464.74C107.86 464.44 121.92 413.66 121.92 413.36C121.92 413.06 117.27 408.3 117.27 408.3L114.33 408.2Z" fill="url(#paint64_linear_140_1396)"/>
<path d="M131.23 389.69C131.23 389.69 130.52 392.93 132.14 394.65C133.76 396.37 139.42 396.37 141.55 394.75C143.67 393.13 147.21 388.98 147.21 388.98C147.21 388.98 156.31 389.18 158.23 392.52C160.15 395.86 162.78 404.86 160.76 414.57C158.74 424.28 153.88 439.45 151.45 446.94C149.02 454.43 147.61 459.18 147.2 462.21C146.8 465.24 146.9 468.99 146.9 468.99C146.9 468.99 138.4 471.22 123.43 466.36C108.46 461.5 107.15 460.7 107.15 460.7C107.15 460.7 110.39 450.18 112.41 438.15C114.43 426.12 116.66 408.41 116.66 408.41L113.22 407.8C113.22 407.8 119.09 394.25 124.75 391.62C130.42 388.98 131.23 389.69 131.23 389.69Z" fill="url(#paint65_linear_140_1396)"/>
<path d="M146.8 389.08C146.8 389.08 146.7 386.55 146.9 383.21C147.1 379.87 147.2 379.06 147.2 379.06C147.2 379.06 151.14 374.1 151.04 371.78C150.94 369.45 148.81 369.45 147.7 370.67C146.59 371.88 145.17 373 145.17 373L143.55 372.8L137.78 368.55C137.78 368.55 137.78 363.19 136.57 362.99C135.36 362.79 131.51 364 130.2 363.5C128.88 362.99 127.97 362.29 127.97 362.69C127.97 363.09 126.15 368.56 126.25 370.38C126.35 372.2 127.77 373.52 127.56 374.53C127.36 375.54 126.65 378.98 126.95 379.89C127.25 380.8 129.58 381.91 129.58 381.91C129.58 381.91 129.68 387.57 130.29 388.59C130.9 389.6 131.2 389.7 131.2 389.7C131.2 389.7 130.29 393.64 132.82 395.26C134.4 396.27 137.82 397.01 141.11 395.26C143.11 394.2 144.68 392.08 146.8 389.08Z" fill="url(#paint66_linear_140_1396)"/>
<path d="M151.05 371.79C150.95 369.46 148.82 369.46 147.71 370.68C146.6 371.89 145.18 373.01 145.18 373.01L143.56 372.81L137.79 368.56C137.79 368.56 137.79 363.2 136.58 363C135.37 362.8 131.52 364.01 130.21 363.51C128.89 363 127.98 362.3 127.98 362.7C127.98 362.7 127.17 362.4 126.46 361.08C125.75 359.77 125.35 358.15 126.76 356.53C128.18 354.91 138.29 352.38 141.83 352.99C145.37 353.6 150.02 355.52 151.34 359.97C152.66 364.42 151.24 372.92 151.24 372.92L150.82 373.05C150.98 372.57 151.07 372.15 151.05 371.79Z" fill="black"/>
<path d="M108.52 461.4C108.52 461.4 106.24 473.99 102.45 488.41C98.6602 502.82 96.9902 510.56 98.2002 514.66C99.4102 518.76 112.16 535.14 113.68 537.57C115.2 540 135.22 559.27 135.22 559.27C135.22 559.27 139.32 552.29 140.99 545.62L142.66 538.94C142.66 538.94 117.32 516.03 117.32 515.42C117.32 514.81 117.93 504.34 117.93 504.34C117.93 504.34 120.05 474.76 119.75 474.3C119.45 473.84 111.56 462.47 111.56 462.47L108.52 461.4Z" fill="url(#paint67_linear_140_1396)"/>
<path d="M142.65 538.93C142.65 538.93 145.38 539.59 145.38 540.4C145.38 541.21 143.56 550.11 143.66 552.74C143.76 555.37 144.37 561.64 142.85 565.99C141.33 570.34 138.5 572.77 136.88 572.16C135.26 571.55 134.55 570.74 135.06 569.02C135.57 567.3 137.59 562.45 137.08 561.03C136.57 559.61 135.66 558.6 135.66 558.6C135.66 558.6 141.54 546.97 142.65 538.93Z" fill="black"/>
<path d="M145.79 469.29C145.79 469.29 142.96 478.6 141.14 484.06C139.32 489.52 137.65 495.54 134.77 517.39C131.89 539.24 126.43 571.4 126.43 571.4C126.43 571.4 122.03 572.01 116.87 570.79C111.71 569.57 109.28 567.45 109.28 567.45C109.28 567.45 116.87 525.12 117.78 505.7C118.69 486.28 118.39 479.3 116.87 476.87C115.35 474.44 112.62 470.35 111.86 467.16C111.1 463.97 111.56 462.46 111.56 462.46C111.56 462.46 131.93 470.96 145.79 469.29Z" fill="url(#paint68_linear_140_1396)"/>
<path d="M125.26 571.65C125.26 571.65 125.87 574.08 125.16 574.58C124.45 575.09 121.72 576.4 120.2 577.41C118.68 578.42 116.05 581.05 110.89 581.86C105.73 582.67 105.43 582.77 103.81 582.16C102.19 581.55 100.67 580.44 100.67 580.44C100.67 580.44 100.77 578.62 102.49 576.8C104.21 574.98 108.96 571.74 109.57 570.33C110.18 568.91 110.58 568.21 110.58 568.21C110.58 568.21 115.55 572.05 125.26 571.65Z" fill="black"/>
<path d="M141.44 409.51C141.44 409.51 133.7 427.11 132.49 427.26C131.28 427.41 108.82 425.14 106.39 421.65C103.96 418.16 102.6 410.12 101.54 409.51C100.48 408.9 99.7201 409.049 99.7201 409.049C99.7201 409.049 99.7701 416.69 99.4701 416.99C99.1701 417.29 95.9301 417.6 94.4101 416.69C92.8901 415.78 90.3601 414.26 89.1501 414.06C87.9401 413.86 86.0101 414.67 86.8201 415.68C87.6301 416.69 89.6501 418.51 89.6501 418.51C89.6501 418.51 89.7501 423.16 93.5901 425.69C97.4301 428.22 104.31 430.95 104.31 430.95C104.31 430.95 126.36 440.56 131.21 440.96C136.06 441.36 137.68 440.349 140.52 438.329C143.35 436.309 150.43 427.2 153.67 422.25C156.91 417.29 157.01 415.27 157.01 415.27C157.01 415.27 147.21 414.17 141.44 409.51Z" fill="url(#paint69_linear_140_1396)"/>
<path d="M99.4699 417C99.1699 417.3 95.9299 417.61 94.4099 416.7C92.8899 415.79 90.3599 414.27 89.1499 414.07C89.1499 414.07 86.4199 405.27 86.4199 404.36C86.4199 403.45 97.3399 403.35 97.8499 403.65C98.3599 403.95 99.7199 409.06 99.7199 409.06C99.7199 409.06 99.7699 416.7 99.4699 417Z" fill="black"/>
<path d="M145.79 396.06L140.53 409.82C140.53 409.82 145.79 412.45 151.05 414.07C156.31 415.69 157.93 415.49 157.93 415.49C157.93 415.49 160.36 410.43 160.56 400.52" fill="url(#paint70_linear_140_1396)"/>
<path d="M117.27 408.3C117.27 408.3 120.1 398.89 121.52 396.26C122.94 393.63 123.54 392.42 123.54 392.42C123.54 392.42 119.29 396.26 116.26 401.73C113.23 407.19 113.23 407.8 113.23 407.8C113.23 407.8 115.85 408.81 117.27 408.3Z" fill="url(#paint71_linear_140_1396)"/>
<path d="M216.38 286.15C216.38 286.15 192.99 274.95 189.34 274.85C185.69 274.75 181.85 277.58 181.01 280.21C180.17 282.84 181.95 288.39 185.41 292.48C188.87 296.57 191.59 297.74 198.23 302.02C204.87 306.3 211.42 312.73 220.97 313.9C230.52 315.07 235.19 313.41 243.9 313.71C252.6 314 263.46 310.79 267.57 307.77C271.69 304.75 277.77 300.86 281.51 298.62C285.25 296.38 288.81 291.8 290.77 288.79C292.74 285.77 293.95 280.32 292.92 278.47C291.89 276.62 288.8 273.7 285.06 274.77C281.32 275.84 257.08 285.97 257.08 285.97L216.38 286.15Z" fill="url(#paint72_linear_140_1396)"/>
<path d="M229.01 228.7C229.01 228.7 214.88 232.01 212.63 234.06C210.38 236.1 206.45 240.1 205.52 245.74C204.58 251.39 205.05 257.91 205.05 257.91C205.05 257.91 206.36 259.76 212.25 260.64C218.15 261.52 217.4 261.32 217.4 261.32L216.37 286.15C216.37 286.15 217.4 290.24 227.69 291.51C237.98 292.78 247.53 291.9 251.83 290.34C256.13 288.78 257.44 286.25 257.44 286.25C257.44 286.25 258.19 271.94 258.47 267.85C258.75 263.76 258.94 261.72 258.56 261.62C258.19 261.52 263.05 261.04 267.64 258.21C272.23 255.39 273.25 254.51 273.25 254.51C273.25 254.51 273.06 238.35 267.82 234.65C262.58 230.95 250.93 227.93 246.41 227.54C241.92 227.14 229.01 228.7 229.01 228.7Z" fill="url(#paint73_linear_140_1396)"/>
<path d="M229.17 227.16L228.75 232.86C228.75 232.86 232.12 237.1 237.1 237.1C242.08 237.1 246.93 232.28 246.93 232.28L246.44 227.53" fill="url(#paint74_linear_140_1396)"/>
<path d="M225.24 211.54C225.24 211.54 223.56 210.74 223.42 212.42C223.28 214.1 224.26 218.63 225.1 218.99C225.94 219.36 226.5 219.5 226.5 219.5C226.5 219.5 227.34 224.25 227.83 225.49C228.32 226.73 233.65 231.41 235.13 231.84C236.6 232.28 240.18 232.42 242.08 231.47C243.98 230.52 247.2 226.65 248.19 224.46C249.17 222.27 249.24 219.42 249.24 219.42C249.24 219.42 250.64 219.27 251.06 217.67C251.48 216.06 252.18 211.54 251.27 211.02C250.36 210.51 250.85 205.69 248.81 204.74C246.77 203.79 229.65 198.68 228.39 200.07C227.13 201.46 226.21 204.6 226.07 205.55C225.94 206.5 225.24 211.54 225.24 211.54Z" fill="url(#paint75_linear_140_1396)"/>
<path d="M227.32 217.3C227.32 217.3 227.13 211.36 227.23 211.07C227.32 210.78 228.35 206.01 228.35 206.01C228.35 206.01 230.97 207.76 238.83 207.96C246.69 208.15 248 207.77 248 207.77V217.51L248.94 217.32C248.94 217.32 249.13 212.06 250.06 211.77C251 211.48 251.37 211.48 251.37 211.48C251.37 211.48 251.46 199.5 251 197.56C250.53 195.61 246.79 192.79 243.89 192.2C240.99 191.62 229.95 192.3 226.49 195.12C223.03 197.94 223.5 199.02 223.4 202.33C223.31 205.64 223.77 211.48 223.77 211.48C223.77 211.48 225.36 211.19 225.55 211.87C225.74 212.55 226.2 217.03 226.2 217.03L227.32 217.3Z" fill="black"/>
<path d="M205.24 258.2C205.04 258.11 205.8 264.12 208.05 272.73C210.3 281.35 211.14 283.76 211.84 284.49C212.54 285.22 216.19 285.59 218.72 284.56C221.25 283.54 226.72 279.01 229.18 275.43C231.64 271.85 234.09 268.71 234.09 268.71L234.23 257.61L241.39 257.1C241.39 257.1 239.99 255.57 238.72 255.27C237.46 254.98 232.05 257.9 232.05 257.9L228.12 266.66L219.49 270.09L218.72 261.18C218.72 261.2 212.61 261.49 205.24 258.2Z" fill="url(#paint76_linear_140_1396)"/>
<path d="M246.08 277.92C246.08 278.24 245.83 278.5 245.52 278.5H234.71C234.635 278.499 234.561 278.483 234.493 278.453C234.424 278.423 234.362 278.38 234.31 278.326C234.258 278.273 234.217 278.209 234.19 278.139C234.162 278.07 234.149 277.995 234.15 277.92V257.98C234.15 257.66 234.4 257.4 234.71 257.4H245.52C245.83 257.4 246.08 257.66 246.08 257.98V277.92Z" fill="black"/>
<path d="M235 258.71H236.26V259.88H235V258.71Z" fill="white"/>
<path d="M223.28 290.92C223.28 290.92 225.53 294.06 231.56 294.94C237.6 295.82 245.88 294.79 247.49 293.77C249.1 292.75 249.39 290.99 249.39 290.99C249.39 290.99 237.73 294.06 223.28 290.92Z" fill="url(#paint77_linear_140_1396)"/>
<path d="M233.8 291.87H241.59V296.18H233.8V291.87ZM230.69 304.74C230.32 304.74 213.1 306.2 210.76 307.37C208.42 308.54 206.64 310.97 208.79 313.8C210.94 316.62 215.25 317.89 220.49 317.01C225.73 316.13 237.24 311.95 237.24 311.95L236.68 310.49L230.69 304.74Z" fill="black"/>
<path d="M220.03 293.06C211.7 288.68 188.78 275.24 188.78 275.24C188.78 275.24 188.66 275.1 188.44 274.89C185.08 275.22 181.78 277.79 181.01 280.21C180.17 282.84 181.95 288.39 185.41 292.48C188.3 295.89 190.68 297.28 195.24 300.13C195.93 300.46 196.56 300.74 197.1 300.95C202.81 303.19 223.49 313.22 223.49 313.22C223.49 313.22 225.36 312.25 227.98 308.45C230.6 304.65 229.57 298.81 229.57 298.81C229.57 298.81 228.35 297.44 220.03 293.06Z" fill="url(#paint78_linear_140_1396)"/>
<path d="M229.85 299.68L241.36 305.23C241.36 305.23 239.96 305.23 239.49 307.18C239.02 309.13 239.58 310.39 239.58 310.39H237.24L228.44 307.47C228.45 307.47 230.6 302.8 229.85 299.68Z" fill="url(#paint79_linear_140_1396)"/>
<path d="M236.68 310.49C236.68 310.49 237.9 313.31 239.3 313.8C240.7 314.29 252.31 317.01 257.55 316.92C262.79 316.82 265.69 315.75 266.25 312.05C266.81 308.35 263.82 307.47 260.35 306.99C256.89 306.5 241.36 305.24 241.36 305.24C241.36 305.24 239.68 305.82 239.49 307.19C239.3 308.55 239.21 310.31 239.21 310.31L236.68 310.49Z" fill="black"/>
<path d="M236.68 302.99C236.96 302.8 244.17 298.9 244.17 298.9L245.11 305.52L241.37 305.23L236.68 302.99Z" fill="url(#paint80_linear_140_1396)"/>
<path d="M286.05 274.57C277.19 278.77 244.52 298.72 244.16 298.9L245.1 305.52C245.1 305.52 252.68 306.69 257.92 306.88C262.38 307.05 264.87 308.55 265.51 308.99C266.3 308.58 266.99 308.16 267.55 307.75C271.67 304.73 277.75 300.84 281.49 298.6C285.23 296.36 288.79 291.78 290.75 288.77C292.72 285.75 293.93 280.3 292.9 278.45C291.98 276.77 289.34 274.21 286.05 274.57Z" fill="url(#paint81_linear_140_1396)"/>
<path d="M232.89 263.17C232.54 263.68 232.05 264.41 232.89 265.43C233.73 266.45 233.66 266.82 233.66 266.82C233.66 266.82 232.61 267.84 232.61 268.86C232.61 269.88 233.1 270.76 233.1 270.76C233.1 270.76 232.68 272.22 232.89 272.66L233.1 273.1C233.1 273.1 231.91 274.85 234.36 276.24C236.82 277.63 244.89 280.55 244.89 280.55C244.89 280.55 252.19 284.35 259.42 285.3C266.65 286.25 270.16 283.91 271 282.38C271.84 280.85 273.11 271.28 273.32 266.39C273.53 261.5 273.04 254.63 273.04 254.63C273.04 254.63 270.8 257.33 265.25 259.38C259.71 261.42 259.36 261.21 259.36 261.42C259.36 261.64 259.57 269.38 259.85 270.91C260.13 272.44 260.69 273.76 260.69 273.76C260.69 273.76 254.72 273.83 252.41 273.98C250.09 274.13 248.48 273.91 248.48 273.91C248.48 273.91 249.95 270.55 249.18 268.58C248.41 266.61 247.71 264.86 247.85 263.83C247.99 262.81 247.85 262.37 247.5 262.37C247.15 262.37 245.96 262.74 245.82 263.76C245.68 264.78 245.68 268.8 245.68 268.8C245.68 268.8 233.24 262.66 232.89 263.17Z" fill="url(#paint82_linear_140_1396)"/>
<path d="M251.64 563.32C251.64 563.32 250.43 564.33 247.19 564.74L243.95 565.14C243.95 565.14 244.66 559.07 243.14 557.65C241.62 556.23 234.34 552.69 232.42 543.39C230.5 534.09 233.94 523.57 241.32 520.13C248.7 516.69 254.97 516.39 259.83 520.43C264.68 524.48 267.52 531.35 267.92 536.51C268.32 541.67 268.22 544.9 268.22 544.9L251.64 563.32Z" fill="black"/>
<path d="M256.5 556.75C256.5 556.75 251.14 552.2 249.42 552.5C247.7 552.8 244.57 554.93 243.45 553.61C242.34 552.3 241.73 549.56 241.33 549.36C240.93 549.16 240.12 548.65 240.22 548.05C240.32 547.44 241.03 546.73 241.03 546.73C241.03 546.73 239.82 547.44 239.61 546.63C239.41 545.82 239.41 544.91 239.41 544.91C239.41 544.91 236.98 545.21 237.29 543.7C237.59 542.18 238.71 538.85 238.3 537.63C237.9 536.42 235.97 532.88 238.3 529.94C240.63 527.01 245.58 523.57 249.73 529.03C253.88 534.49 254.79 537.53 257.22 539.25C259.65 540.97 260.96 542.18 260.25 543.5C259.54 544.81 258.43 546.64 258.43 547.75C258.43 548.86 258.53 551.09 258.53 551.09L258.23 559.18L256.5 556.75Z" fill="url(#paint83_linear_140_1396)"/>
<path d="M216.34 572.93C216.34 572.93 215.13 575.86 218.16 577.78C221.19 579.7 249.51 583.24 250.83 582.53C252.14 581.82 258.62 570.29 258.62 570.29L258.32 556.94L256.5 556.74C256.5 556.74 253.16 559.67 250.94 564.23C248.72 568.78 244.77 575.96 244.77 575.96C244.77 575.96 233.74 575.25 232.43 573.63C231.12 572.01 229.29 568.88 227.78 568.88C226.26 568.88 223.53 568.78 223.53 568.78L216.34 572.93Z" fill="url(#paint84_linear_140_1396)"/>
<path d="M263.68 544.21C263.68 544.21 259.33 547.35 258.83 550.58C258.32 553.82 258.43 569.19 258.63 570.3C258.83 571.41 264.8 589.42 269.05 589.62C273.3 589.82 276.53 585.98 282.5 586.48C288.47 586.99 302.43 587.8 307.48 588C312.54 588.2 314.05 588.51 314.05 588.51L314.15 566.16C314.15 566.16 306.26 567.88 300.7 565.76C295.14 563.64 289.68 558.58 286.74 555.44C283.81 552.3 276.93 545.22 263.68 544.21Z" fill="url(#paint85_linear_140_1396)"/>
<path d="M261.1 547.391C261.1 547.391 260.04 549.82 260.04 555.73C260.04 561.64 259.74 582.581 259.74 582.581C259.74 582.581 250.94 583.14 245.58 582.43C240.22 581.72 234.15 579.6 234.15 579.6C234.15 579.6 232.53 576.77 230.21 575.05C227.88 573.33 224.14 568.88 223.74 569.18C223.34 569.48 223.34 570.191 223.84 572.211C224.34 574.231 224.95 575.951 224.95 575.951C224.95 575.951 221.31 576.151 220.7 575.141C220.09 574.131 217.56 567.451 217.56 567.451C217.56 567.451 216.85 568.661 216.55 570.381C216.25 572.101 217.26 577.76 219.89 579.79C222.52 581.81 228.08 583.23 232.73 584.75C237.38 586.27 252.96 588.9 259.23 589.3C265.5 589.7 267.52 589.811 268.13 589.201C268.74 588.591 273.29 570.181 273.49 562.401C273.69 554.611 272.48 547.53 268.43 546.12C264.39 544.71 261.86 546.231 261.1 547.391Z" fill="url(#paint86_linear_140_1396)"/>
<path d="M218.37 569.701C218.37 569.701 213.21 562.01 213.21 561.41C213.21 560.81 218.77 561.81 218.77 561.81L223.73 569.19C223.73 569.19 223.43 570.61 223.63 571.42C223.83 572.23 224.14 573.54 224.14 573.54L220.09 573.44L218.37 569.701Z" fill="url(#paint87_linear_140_1396)"/>
<path d="M314.15 566.16C314.15 566.16 324.82 560.45 331.19 560.75C337.56 561.05 344.09 567.27 349.09 568.64C354.1 570.01 364.87 572.28 364.87 572.28L364.11 589.88C364.11 589.88 334.68 590.34 325.27 589.88C315.86 589.42 314.04 588.51 314.04 588.51C314.04 588.51 313.49 570.05 314.15 566.16Z" fill="url(#paint88_linear_140_1396)"/>
<path d="M364.82 572.83C364.82 572.83 369.27 573.94 374.13 575.26C378.98 576.58 380 576.37 380 576.37C380 576.37 378.58 564.84 379.29 559.78C380 554.72 382.63 544.41 383.03 541.17C383.43 537.93 383.43 536.62 383.03 535.81C382.63 535 381.92 534.49 381.92 534.49C381.92 534.49 380.3 534.49 378.28 532.87C376.26 531.25 374.03 528.12 374.03 528.12C374.03 528.12 385.66 514.16 391.63 508.6C397.6 503.04 400.02 502.33 400.73 503.24C401.44 504.15 400.93 506.98 399.31 509.92C397.69 512.85 393.14 523.68 392.74 527.52C392.34 531.36 392.84 551.69 393.75 565.96C394.66 580.22 395.37 586.29 394.76 587.6C394.15 588.92 391.52 589.52 391.52 589.52L364.11 589.87L364.82 572.83Z" fill="url(#paint89_linear_140_1396)"/>
<path d="M391.63 508.6C385.66 514.16 374.03 528.12 374.03 528.12C374.03 528.12 376.25 531.26 378.28 532.87C380.3 534.49 381.92 534.49 381.92 534.49C381.92 534.49 382.73 527 386.98 521.44C390.93 516.27 393.84 512.58 397.72 513.23C398.36 511.8 398.93 510.62 399.32 509.9C400.94 506.97 401.44 504.13 400.74 503.22C400.02 502.33 397.59 503.04 391.63 508.6Z" fill="url(#paint90_linear_140_1396)"/>
<path d="M374.13 575.26C378.98 576.58 380 576.37 380 576.37C380 576.37 379.13 569.24 379.1 563.73C376.04 560.29 364.99 547.86 359.88 542.49C353.91 536.22 350.27 521.35 350.07 521.05C349.87 520.75 349.77 519.13 349.56 518.22C349.35 517.31 346.83 512.05 345.51 511.34C344.19 510.63 342.48 515.49 342.68 523.27C342.88 531.06 343.39 548.05 343.39 548.05C343.39 548.05 347.64 548.86 349.46 548.76C351.28 548.66 352.9 547.24 352.9 547.24C352.9 547.24 353.91 547.24 354.62 547.95C355.33 548.66 358.06 554.02 360.99 559.78C363.33 564.38 366.95 571.16 368.33 573.72C369.95 574.14 372 574.68 374.13 575.26Z" fill="url(#paint91_linear_140_1396)"/>
<path d="M347.02 526.2C347.32 522.96 349.85 520.43 349.85 520.43C349.86 520.43 349.87 520.42 349.89 520.42C349.78 519.78 349.69 518.83 349.55 518.21C349.35 517.3 346.82 512.04 345.5 511.33C344.18 510.62 342.47 515.48 342.67 523.26C342.87 531.05 343.38 548.04 343.38 548.04C343.38 548.04 347.63 548.85 349.45 548.75C351.27 548.65 352.89 547.23 352.89 547.23C348.13 540.46 346.72 529.44 347.02 526.2Z" fill="url(#paint92_linear_140_1396)"/>
<path d="M233.93 526.15L218.77 561.81L223.15 568.53L256.5 556.75" fill="url(#paint93_linear_140_1396)"/>
<path d="M154.05 316.56L86.4199 404.36L97.8499 403.65L99.7199 409.06L154.03 389.84" fill="url(#paint94_linear_140_1396)"/>
<path d="M158.69 84.2803L234.22 257.62L245.52 257.4L334.47 92.4603" fill="url(#paint95_linear_140_1396)"/>
<path d="M288.29 203.61L351.35 259.18L357.17 238.12L391.53 236.38L378.92 79.8701" fill="url(#paint96_linear_140_1396)"/>
<path d="M478.42 403.16L520.75 406.28L527.12 406.2L530.99 393.53L524.99 393.46L492.38 361.44" fill="url(#paint97_linear_140_1396)"/>
</g>
<defs>
<linearGradient id="paint0_linear_140_1396" x1="336.181" y1="-1.72921" x2="336.181" y2="568.8" gradientUnits="userSpaceOnUse">
<stop stop-color="#7700BB"/>
<stop offset="1"/>
</linearGradient>
<linearGradient id="paint1_linear_140_1396" x1="452.936" y1="51.4055" x2="437.124" y2="130.032" gradientUnits="userSpaceOnUse">
<stop stop-color="#88CFDA"/>
<stop offset="0.008" stop-color="#89CFD9"/>
<stop offset="0.478" stop-color="#C8D9BB"/>
<stop offset="0.822" stop-color="#F0DFA7"/>
<stop offset="1" stop-color="#FFE1A0"/>
</linearGradient>
<linearGradient id="paint2_linear_140_1396" x1="479.533" y1="368.333" x2="628.534" y2="264.175" gradientUnits="userSpaceOnUse">
<stop offset="1"/>
</linearGradient>
<linearGradient id="paint3_linear_140_1396" x1="428.723" y1="473.19" x2="532.708" y2="300.688" gradientUnits="userSpaceOnUse">
<stop stop-color="#7633FF"/>
<stop offset="0.159" stop-color="#7137FF"/>
<stop offset="0.353" stop-color="#6243FF"/>
<stop offset="0.568" stop-color="#4957FF"/>
<stop offset="0.794" stop-color="#2672FF"/>
<stop offset="1" stop-color="#0090FF"/>
</linearGradient>
<linearGradient id="paint4_linear_140_1396" x1="492.023" y1="429.361" x2="491.625" y2="430.038" gradientUnits="userSpaceOnUse">
<stop offset="0.074" stop-color="#CEC228"/>
<stop offset="0.58" stop-color="#B2AE18"/>
</linearGradient>
<linearGradient id="paint5_linear_140_1396" x1="430.742" y1="379.392" x2="445.734" y2="376.054" gradientUnits="userSpaceOnUse">
<stop stop-color="#7700BB"/>
<stop offset="1"/>
</linearGradient>
<linearGradient id="paint6_linear_140_1396" x1="356.19" y1="422.666" x2="449.976" y2="401.785" gradientUnits="userSpaceOnUse">
<stop stop-color="#7700BB"/>
<stop offset="1"/>
</linearGradient>
<linearGradient id="paint7_linear_140_1396" x1="470.276" y1="460.869" x2="548.39" y2="443.477" gradientUnits="userSpaceOnUse">
<stop stop-color="#7700BB"/>
<stop offset="1"/>
</linearGradient>
<linearGradient id="paint8_linear_140_1396" x1="196.125" y1="348.951" x2="47.1026" y2="244.821" gradientUnits="userSpaceOnUse">
<stop offset="1"/>
</linearGradient>
<linearGradient id="paint9_linear_140_1396" x1="404.579" y1="539.12" x2="498.089" y2="390.793" gradientUnits="userSpaceOnUse">
<stop stop-color="#59023F"/>
<stop offset="0.119" stop-color="#590444"/>
<stop offset="0.265" stop-color="#5A0A53"/>
<stop offset="0.426" stop-color="#5C156C"/>
<stop offset="0.597" stop-color="#5E238F"/>
<stop offset="0.776" stop-color="#6135BC"/>
<stop offset="0.96" stop-color="#644CF2"/>
<stop offset="1" stop-color="#6551FF"/>
</linearGradient>
<linearGradient id="paint10_linear_140_1396" x1="466.57" y1="501.982" x2="466.422" y2="502.754" gradientUnits="userSpaceOnUse">
<stop offset="0.074" stop-color="#CEC228"/>
<stop offset="0.58" stop-color="#B2AE18"/>
</linearGradient>
<linearGradient id="paint11_linear_140_1396" x1="392.106" y1="475.458" x2="405.11" y2="467.288" gradientUnits="userSpaceOnUse">
<stop stop-color="#7700BB"/>
<stop offset="1"/>
</linearGradient>
<linearGradient id="paint12_linear_140_1396" x1="336.375" y1="541.226" x2="417.733" y2="490.107" gradientUnits="userSpaceOnUse">
<stop stop-color="#7700BB"/>
<stop offset="1"/>
</linearGradient>
<linearGradient id="paint13_linear_140_1396" x1="236.025" y1="433.937" x2="19.189" y2="317.861" gradientUnits="userSpaceOnUse">
<stop stop-color="#7633FF"/>
<stop offset="0.159" stop-color="#7137FF"/>
<stop offset="0.353" stop-color="#6243FF"/>
<stop offset="0.568" stop-color="#4957FF"/>
<stop offset="0.794" stop-color="#2672FF"/>
<stop offset="1" stop-color="#0090FF"/>
</linearGradient>
<linearGradient id="paint14_linear_140_1396" x1="192.914" y1="448.577" x2="193.63" y2="448.901" gradientUnits="userSpaceOnUse">
<stop offset="0.074" stop-color="#CEC228"/>
<stop offset="0.58" stop-color="#B2AE18"/>
</linearGradient>
<linearGradient id="paint15_linear_140_1396" x1="285.887" y1="540.138" x2="188.078" y2="373.54" gradientUnits="userSpaceOnUse">
<stop stop-color="#59023F"/>
<stop offset="0.119" stop-color="#590444"/>
<stop offset="0.265" stop-color="#5A0A53"/>
<stop offset="0.426" stop-color="#5C156C"/>
<stop offset="0.597" stop-color="#5E238F"/>
<stop offset="0.776" stop-color="#6135BC"/>
<stop offset="0.96" stop-color="#644CF2"/>
<stop offset="1" stop-color="#6551FF"/>
</linearGradient>
<linearGradient id="paint16_linear_140_1396" x1="229.794" y1="503.184" x2="230.01" y2="503.94" gradientUnits="userSpaceOnUse">
<stop offset="0.074" stop-color="#CEC228"/>
<stop offset="0.58" stop-color="#B2AE18"/>
</linearGradient>
<linearGradient id="paint17_linear_140_1396" x1="301.633" y1="470.073" x2="287.945" y2="463.1" gradientUnits="userSpaceOnUse">
<stop stop-color="#7700BB"/>
<stop offset="1"/>
</linearGradient>
<linearGradient id="paint18_linear_140_1396" x1="363.037" y1="530.581" x2="277.417" y2="486.963" gradientUnits="userSpaceOnUse">
<stop stop-color="#7700BB"/>
<stop offset="1"/>
</linearGradient>
<linearGradient id="paint19_linear_140_1396" x1="261.688" y1="505.192" x2="163.104" y2="454.97" gradientUnits="userSpaceOnUse">
<stop stop-color="#7700BB"/>
<stop offset="1"/>
</linearGradient>
<linearGradient id="paint20_linear_140_1396" x1="250.264" y1="218.575" x2="258.71" y2="222.427" gradientUnits="userSpaceOnUse">
<stop stop-color="#7633FF"/>
<stop offset="0.159" stop-color="#7137FF"/>
<stop offset="0.353" stop-color="#6243FF"/>
<stop offset="0.568" stop-color="#4957FF"/>
<stop offset="0.794" stop-color="#2672FF"/>
<stop offset="1" stop-color="#0090FF"/>
</linearGradient>
<linearGradient id="paint21_linear_140_1396" x1="239.018" y1="221.11" x2="246.495" y2="224.519" gradientUnits="userSpaceOnUse">
<stop stop-color="#7633FF"/>
<stop offset="0.159" stop-color="#7137FF"/>
<stop offset="0.353" stop-color="#6243FF"/>
<stop offset="0.568" stop-color="#4957FF"/>
<stop offset="0.794" stop-color="#2672FF"/>
<stop offset="1" stop-color="#0090FF"/>
</linearGradient>
<linearGradient id="paint22_linear_140_1396" x1="232.703" y1="232.567" x2="239.364" y2="235.605" gradientUnits="userSpaceOnUse">
<stop stop-color="#7633FF"/>
<stop offset="0.159" stop-color="#7137FF"/>
<stop offset="0.353" stop-color="#6243FF"/>
<stop offset="0.568" stop-color="#4957FF"/>
<stop offset="0.794" stop-color="#2672FF"/>
<stop offset="1" stop-color="#0090FF"/>
</linearGradient>
<linearGradient id="paint23_linear_140_1396" x1="218.177" y1="226.13" x2="227.636" y2="230.443" gradientUnits="userSpaceOnUse">
<stop stop-color="#7633FF"/>
<stop offset="0.159" stop-color="#7137FF"/>
<stop offset="0.353" stop-color="#6243FF"/>
<stop offset="0.568" stop-color="#4957FF"/>
<stop offset="0.794" stop-color="#2672FF"/>
<stop offset="1" stop-color="#0090FF"/>
</linearGradient>
<linearGradient id="paint24_linear_140_1396" x1="203.735" y1="248.474" x2="214.79" y2="253.515" gradientUnits="userSpaceOnUse">
<stop stop-color="#7633FF"/>
<stop offset="0.159" stop-color="#7137FF"/>
<stop offset="0.353" stop-color="#6243FF"/>
<stop offset="0.568" stop-color="#4957FF"/>
<stop offset="0.794" stop-color="#2672FF"/>
<stop offset="1" stop-color="#0090FF"/>
</linearGradient>
<linearGradient id="paint25_linear_140_1396" x1="209.803" y1="235.091" x2="218.728" y2="239.16" gradientUnits="userSpaceOnUse">
<stop stop-color="#7633FF"/>
<stop offset="0.159" stop-color="#7137FF"/>
<stop offset="0.353" stop-color="#6243FF"/>
<stop offset="0.568" stop-color="#4957FF"/>
<stop offset="0.794" stop-color="#2672FF"/>
<stop offset="1" stop-color="#0090FF"/>
</linearGradient>
<linearGradient id="paint26_linear_140_1396" x1="408.58" y1="225.743" x2="400.133" y2="229.594" gradientUnits="userSpaceOnUse">
<stop stop-color="#7633FF"/>
<stop offset="0.159" stop-color="#7137FF"/>
<stop offset="0.353" stop-color="#6243FF"/>
<stop offset="0.568" stop-color="#4957FF"/>
<stop offset="0.794" stop-color="#2672FF"/>
<stop offset="1" stop-color="#0090FF"/>
</linearGradient>
<linearGradient id="paint27_linear_140_1396" x1="419.824" y1="228.277" x2="412.348" y2="231.687" gradientUnits="userSpaceOnUse">
<stop stop-color="#7633FF"/>
<stop offset="0.159" stop-color="#7137FF"/>
<stop offset="0.353" stop-color="#6243FF"/>
<stop offset="0.568" stop-color="#4957FF"/>
<stop offset="0.794" stop-color="#2672FF"/>
<stop offset="1" stop-color="#0090FF"/>
</linearGradient>
<linearGradient id="paint28_linear_140_1396" x1="426.14" y1="239.736" x2="419.478" y2="242.773" gradientUnits="userSpaceOnUse">
<stop stop-color="#7633FF"/>
<stop offset="0.159" stop-color="#7137FF"/>
<stop offset="0.353" stop-color="#6243FF"/>
<stop offset="0.568" stop-color="#4957FF"/>
<stop offset="0.794" stop-color="#2672FF"/>
<stop offset="1" stop-color="#0090FF"/>
</linearGradient>
<linearGradient id="paint29_linear_140_1396" x1="440.667" y1="233.298" x2="431.208" y2="237.611" gradientUnits="userSpaceOnUse">
<stop stop-color="#7633FF"/>
<stop offset="0.159" stop-color="#7137FF"/>
<stop offset="0.353" stop-color="#6243FF"/>
<stop offset="0.568" stop-color="#4957FF"/>
<stop offset="0.794" stop-color="#2672FF"/>
<stop offset="1" stop-color="#0090FF"/>
</linearGradient>
<linearGradient id="paint30_linear_140_1396" x1="455.108" y1="255.643" x2="444.053" y2="260.684" gradientUnits="userSpaceOnUse">
<stop stop-color="#7633FF"/>
<stop offset="0.159" stop-color="#7137FF"/>
<stop offset="0.353" stop-color="#6243FF"/>
<stop offset="0.568" stop-color="#4957FF"/>
<stop offset="0.794" stop-color="#2672FF"/>
<stop offset="1" stop-color="#0090FF"/>
</linearGradient>
<linearGradient id="paint31_linear_140_1396" x1="449.039" y1="242.258" x2="440.114" y2="246.328" gradientUnits="userSpaceOnUse">
<stop stop-color="#7633FF"/>
<stop offset="0.159" stop-color="#7137FF"/>
<stop offset="0.353" stop-color="#6243FF"/>
<stop offset="0.568" stop-color="#4957FF"/>
<stop offset="0.794" stop-color="#2672FF"/>
<stop offset="1" stop-color="#0090FF"/>
</linearGradient>
<linearGradient id="paint32_linear_140_1396" x1="341.509" y1="615.104" x2="341.509" y2="547.468" gradientUnits="userSpaceOnUse">
<stop stop-color="#7700BB"/>
<stop offset="0.118" stop-color="#6300B3"/>
<stop offset="0.393" stop-color="#3800A2"/>
<stop offset="0.641" stop-color="#190095"/>
<stop offset="0.852" stop-color="#07008E"/>
<stop offset="1"/>
</linearGradient>
<linearGradient id="paint33_linear_140_1396" x1="309.715" y1="549.952" x2="312.142" y2="566.945" gradientUnits="userSpaceOnUse">
<stop stop-color="#270036"/>
<stop offset="0.594" stop-color="#4F008B"/>
<stop offset="1" stop-color="#4C24B1"/>
</linearGradient>
<linearGradient id="paint34_linear_140_1396" x1="311.588" y1="529.966" x2="311.588" y2="300.558" gradientUnits="userSpaceOnUse">
<stop stop-color="#270036"/>
<stop offset="0.594" stop-color="#4F008B"/>
<stop offset="1" stop-color="#4C24B1"/>
</linearGradient>
<linearGradient id="paint35_linear_140_1396" x1="312.518" y1="504.478" x2="312.518" y2="312.934" gradientUnits="userSpaceOnUse">
<stop stop-color="#7633FF"/>
<stop offset="0.216" stop-color="#4E53FF"/>
<stop offset="0.436" stop-color="#2C6DFF"/>
<stop offset="0.646" stop-color="#1480FF"/>
<stop offset="0.839" stop-color="#058CFF"/>
<stop offset="1" stop-color="#0090FF"/>
</linearGradient>
<linearGradient id="paint36_linear_140_1396" x1="246.464" y1="391.627" x2="480.006" y2="187.309" gradientUnits="userSpaceOnUse">
<stop stop-color="#A1BAFF"/>
<stop offset="0.015" stop-color="#A7BFFF"/>
<stop offset="0.09" stop-color="#C3D3FF"/>
<stop offset="0.175" stop-color="#D9E3FF"/>
<stop offset="0.274" stop-color="#EAF0FF"/>
<stop offset="0.396" stop-color="#F6F8FF"/>
<stop offset="0.563" stop-color="#FDFEFF"/>
<stop offset="1" stop-color="white"/>
</linearGradient>
<linearGradient id="paint37_linear_140_1396" x1="259.762" y1="362.37" x2="395.084" y2="243.982" gradientUnits="userSpaceOnUse">
<stop stop-color="#7633FF"/>
<stop offset="0.216" stop-color="#4E53FF"/>
<stop offset="0.436" stop-color="#2C6DFF"/>
<stop offset="0.646" stop-color="#1480FF"/>
<stop offset="0.839" stop-color="#058CFF"/>
<stop offset="1" stop-color="#0090FF"/>
</linearGradient>
<linearGradient id="paint38_linear_140_1396" x1="234.337" y1="361.822" x2="315.331" y2="290.963" gradientUnits="userSpaceOnUse">
<stop stop-color="#7633FF"/>
<stop offset="0.216" stop-color="#4E53FF"/>
<stop offset="0.436" stop-color="#2C6DFF"/>
<stop offset="0.646" stop-color="#1480FF"/>
<stop offset="0.839" stop-color="#058CFF"/>
<stop offset="1" stop-color="#0090FF"/>
</linearGradient>
<linearGradient id="paint39_linear_140_1396" x1="168.032" y1="339.52" x2="190.994" y2="319.432" gradientUnits="userSpaceOnUse">
<stop stop-color="#7633FF"/>
<stop offset="0.216" stop-color="#4E53FF"/>
<stop offset="0.436" stop-color="#2C6DFF"/>
<stop offset="0.646" stop-color="#1480FF"/>
<stop offset="0.839" stop-color="#058CFF"/>
<stop offset="1" stop-color="#0090FF"/>
</linearGradient>
<linearGradient id="paint40_linear_140_1396" x1="298.383" y1="471.512" x2="336.76" y2="471.512" gradientUnits="userSpaceOnUse">
<stop stop-color="#A1BAFF"/>
<stop offset="0.015" stop-color="#A7BFFF"/>
<stop offset="0.09" stop-color="#C3D3FF"/>
<stop offset="0.175" stop-color="#D9E3FF"/>
<stop offset="0.274" stop-color="#EAF0FF"/>
<stop offset="0.396" stop-color="#F6F8FF"/>
<stop offset="0.563" stop-color="#FDFEFF"/>
<stop offset="1" stop-color="white"/>
</linearGradient>
<linearGradient id="paint41_linear_140_1396" x1="300.142" y1="451.564" x2="335.063" y2="451.564" gradientUnits="userSpaceOnUse">
<stop stop-color="#A1BAFF"/>
<stop offset="0.015" stop-color="#A7BFFF"/>
<stop offset="0.09" stop-color="#C3D3FF"/>
<stop offset="0.175" stop-color="#D9E3FF"/>
<stop offset="0.274" stop-color="#EAF0FF"/>
<stop offset="0.396" stop-color="#F6F8FF"/>
<stop offset="0.563" stop-color="#FDFEFF"/>
<stop offset="1" stop-color="white"/>
</linearGradient>
<linearGradient id="paint42_linear_140_1396" x1="287.184" y1="428.989" x2="346.61" y2="428.989" gradientUnits="userSpaceOnUse">
<stop stop-color="#A1BAFF"/>
<stop offset="0.015" stop-color="#A7BFFF"/>
<stop offset="0.09" stop-color="#C3D3FF"/>
<stop offset="0.175" stop-color="#D9E3FF"/>
<stop offset="0.274" stop-color="#EAF0FF"/>
<stop offset="0.396" stop-color="#F6F8FF"/>
<stop offset="0.563" stop-color="#FDFEFF"/>
<stop offset="1" stop-color="white"/>
</linearGradient>
<linearGradient id="paint43_linear_140_1396" x1="137.006" y1="526.174" x2="486.17" y2="526.174" gradientUnits="userSpaceOnUse">
<stop stop-color="#A1BAFF"/>
<stop offset="1" stop-color="white"/>
</linearGradient>
<linearGradient id="paint44_linear_140_1396" x1="296.988" y1="546.494" x2="327.677" y2="546.494" gradientUnits="userSpaceOnUse">
<stop stop-color="#270036"/>
<stop offset="0.594" stop-color="#4F008B"/>
<stop offset="1" stop-color="#4C24B1"/>
</linearGradient>
<linearGradient id="paint45_linear_140_1396" x1="310.285" y1="248.628" x2="353.31" y2="248.628" gradientUnits="userSpaceOnUse">
<stop stop-color="#7633FF"/>
<stop offset="0.159" stop-color="#7137FF"/>
<stop offset="0.353" stop-color="#6243FF"/>
<stop offset="0.568" stop-color="#4957FF"/>
<stop offset="0.794" stop-color="#2672FF"/>
<stop offset="1" stop-color="#0090FF"/>
</linearGradient>
<linearGradient id="paint46_linear_140_1396" x1="350.186" y1="253.454" x2="392.669" y2="253.454" gradientUnits="userSpaceOnUse">
<stop stop-color="#A1BAFF"/>
<stop offset="0.015" stop-color="#A7BFFF"/>
<stop offset="0.09" stop-color="#C3D3FF"/>
<stop offset="0.175" stop-color="#D9E3FF"/>
<stop offset="0.274" stop-color="#EAF0FF"/>
<stop offset="0.396" stop-color="#F6F8FF"/>
<stop offset="0.563" stop-color="#FDFEFF"/>
<stop offset="1" stop-color="white"/>
</linearGradient>
<linearGradient id="paint47_linear_140_1396" x1="336.759" y1="266.91" x2="349.63" y2="266.91" gradientUnits="userSpaceOnUse">
<stop stop-color="#A1BAFF"/>
<stop offset="0.015" stop-color="#A7BFFF"/>
<stop offset="0.09" stop-color="#C3D3FF"/>
<stop offset="0.175" stop-color="#D9E3FF"/>
<stop offset="0.274" stop-color="#EAF0FF"/>
<stop offset="0.396" stop-color="#F6F8FF"/>
<stop offset="0.563" stop-color="#FDFEFF"/>
<stop offset="1" stop-color="white"/>
</linearGradient>
<linearGradient id="paint48_linear_140_1396" x1="344.713" y1="262.491" x2="351.349" y2="262.491" gradientUnits="userSpaceOnUse">
<stop stop-color="#A1BAFF"/>
<stop offset="0.015" stop-color="#A7BFFF"/>
<stop offset="0.09" stop-color="#C3D3FF"/>
<stop offset="0.175" stop-color="#D9E3FF"/>
<stop offset="0.274" stop-color="#EAF0FF"/>
<stop offset="0.396" stop-color="#F6F8FF"/>
<stop offset="0.563" stop-color="#FDFEFF"/>
<stop offset="1" stop-color="white"/>
</linearGradient>
<linearGradient id="paint49_linear_140_1396" x1="316.659" y1="223.335" x2="344.233" y2="223.335" gradientUnits="userSpaceOnUse">
<stop stop-color="#A1BAFF"/>
<stop offset="0.015" stop-color="#A7BFFF"/>
<stop offset="0.09" stop-color="#C3D3FF"/>
<stop offset="0.175" stop-color="#D9E3FF"/>
<stop offset="0.274" stop-color="#EAF0FF"/>
<stop offset="0.396" stop-color="#F6F8FF"/>
<stop offset="0.563" stop-color="#FDFEFF"/>
<stop offset="1" stop-color="white"/>
</linearGradient>
<linearGradient id="paint50_linear_140_1396" x1="320.672" y1="204.751" x2="346.09" y2="204.751" gradientUnits="userSpaceOnUse">
<stop stop-color="#A1BAFF"/>
<stop offset="0.015" stop-color="#A7BFFF"/>
<stop offset="0.09" stop-color="#C3D3FF"/>
<stop offset="0.175" stop-color="#D9E3FF"/>
<stop offset="0.274" stop-color="#EAF0FF"/>
<stop offset="0.396" stop-color="#F6F8FF"/>
<stop offset="0.563" stop-color="#FDFEFF"/>
<stop offset="1" stop-color="white"/>
</linearGradient>
<linearGradient id="paint51_linear_140_1396" x1="349.959" y1="237.813" x2="359.492" y2="237.813" gradientUnits="userSpaceOnUse">
<stop stop-color="#7633FF"/>
<stop offset="0.159" stop-color="#7137FF"/>
<stop offset="0.353" stop-color="#6243FF"/>
<stop offset="0.568" stop-color="#4957FF"/>
<stop offset="0.794" stop-color="#2672FF"/>
<stop offset="1" stop-color="#0090FF"/>
</linearGradient>
<linearGradient id="paint52_linear_140_1396" x1="310.172" y1="293.17" x2="382.754" y2="293.17" gradientUnits="userSpaceOnUse">
<stop stop-color="#270036"/>
<stop offset="0.594" stop-color="#4F008B"/>
<stop offset="1" stop-color="#4C24B1"/>
</linearGradient>
<linearGradient id="paint53_linear_140_1396" x1="338.15" y1="311.013" x2="364.917" y2="311.013" gradientUnits="userSpaceOnUse">
<stop stop-color="#311842"/>
<stop offset="0.461" stop-color="#190C4B"/>
<stop offset="1" stop-color="#000054"/>
</linearGradient>
<linearGradient id="paint54_linear_140_1396" x1="290.774" y1="241.836" x2="330.667" y2="241.836" gradientUnits="userSpaceOnUse">
<stop stop-color="#7633FF"/>
<stop offset="0.159" stop-color="#7137FF"/>
<stop offset="0.353" stop-color="#6243FF"/>
<stop offset="0.568" stop-color="#4957FF"/>
<stop offset="0.794" stop-color="#2672FF"/>
<stop offset="1" stop-color="#0090FF"/>
</linearGradient>
<linearGradient id="paint55_linear_140_1396" x1="551.692" y1="449.54" x2="438.821" y2="447.72" gradientUnits="userSpaceOnUse">
<stop stop-color="#7633FF"/>
<stop offset="0.1" stop-color="#624BFF"/>
<stop offset="0.303" stop-color="#3F76FF"/>
<stop offset="0.5" stop-color="#2498FF"/>
<stop offset="0.686" stop-color="#10B0FF"/>
<stop offset="0.857" stop-color="#04BFFF"/>
<stop offset="1" stop-color="#00C4FF"/>
</linearGradient>
<linearGradient id="paint56_linear_140_1396" x1="473.915" y1="384.932" x2="496.62" y2="384.932" gradientUnits="userSpaceOnUse">
<stop stop-color="#A1BAFF"/>
<stop offset="0.015" stop-color="#A7BFFF"/>
<stop offset="0.09" stop-color="#C3D3FF"/>
<stop offset="0.175" stop-color="#D9E3FF"/>
<stop offset="0.274" stop-color="#EAF0FF"/>
<stop offset="0.396" stop-color="#F6F8FF"/>
<stop offset="0.563" stop-color="#FDFEFF"/>
<stop offset="1" stop-color="white"/>
</linearGradient>
<linearGradient id="paint57_linear_140_1396" x1="516.802" y1="407.329" x2="537.219" y2="407.329" gradientUnits="userSpaceOnUse">
<stop stop-color="#A1BAFF"/>
<stop offset="0.015" stop-color="#A7BFFF"/>
<stop offset="0.09" stop-color="#C3D3FF"/>
<stop offset="0.175" stop-color="#D9E3FF"/>
<stop offset="0.274" stop-color="#EAF0FF"/>
<stop offset="0.396" stop-color="#F6F8FF"/>
<stop offset="0.563" stop-color="#FDFEFF"/>
<stop offset="1" stop-color="white"/>
</linearGradient>
<linearGradient id="paint58_linear_140_1396" x1="463.727" y1="541.677" x2="478.811" y2="541.677" gradientUnits="userSpaceOnUse">
<stop stop-color="#A1BAFF"/>
<stop offset="0.015" stop-color="#A7BFFF"/>
<stop offset="0.09" stop-color="#C3D3FF"/>
<stop offset="0.175" stop-color="#D9E3FF"/>
<stop offset="0.274" stop-color="#EAF0FF"/>
<stop offset="0.396" stop-color="#F6F8FF"/>
<stop offset="0.563" stop-color="#FDFEFF"/>
<stop offset="1" stop-color="white"/>
</linearGradient>
<linearGradient id="paint59_linear_140_1396" x1="486.282" y1="539.441" x2="522.874" y2="539.441" gradientUnits="userSpaceOnUse">
<stop stop-color="#A1BAFF"/>
<stop offset="0.015" stop-color="#A7BFFF"/>
<stop offset="0.09" stop-color="#C3D3FF"/>
<stop offset="0.175" stop-color="#D9E3FF"/>
<stop offset="0.274" stop-color="#EAF0FF"/>
<stop offset="0.396" stop-color="#F6F8FF"/>
<stop offset="0.563" stop-color="#FDFEFF"/>
<stop offset="1" stop-color="white"/>
</linearGradient>
<linearGradient id="paint60_linear_140_1396" x1="501.585" y1="574.646" x2="523.734" y2="574.646" gradientUnits="userSpaceOnUse">
<stop stop-color="#270036"/>
<stop offset="0.594" stop-color="#4F008B"/>
<stop offset="1" stop-color="#4C24B1"/>
</linearGradient>
<linearGradient id="paint61_linear_140_1396" x1="510.253" y1="574.122" x2="522.732" y2="574.122" gradientUnits="userSpaceOnUse">
<stop stop-color="#270036"/>
<stop offset="0.594" stop-color="#4F008B"/>
<stop offset="1" stop-color="#4C24B1"/>
</linearGradient>
<linearGradient id="paint62_linear_140_1396" x1="468.353" y1="578.811" x2="477.086" y2="578.811" gradientUnits="userSpaceOnUse">
<stop stop-color="#270036"/>
<stop offset="0.594" stop-color="#4F008B"/>
<stop offset="1" stop-color="#4C24B1"/>
</linearGradient>
<linearGradient id="paint63_linear_140_1396" x1="496.378" y1="419.822" x2="515.31" y2="419.822" gradientUnits="userSpaceOnUse">
<stop stop-color="#7633FF"/>
<stop offset="0.216" stop-color="#4E53FF"/>
<stop offset="0.436" stop-color="#2C6DFF"/>
<stop offset="0.646" stop-color="#1480FF"/>
<stop offset="0.839" stop-color="#058CFF"/>
<stop offset="1" stop-color="#0090FF"/>
</linearGradient>
<linearGradient id="paint64_linear_140_1396" x1="106.621" y1="436.5" x2="121.92" y2="436.5" gradientUnits="userSpaceOnUse">
<stop stop-color="#A1BAFF"/>
<stop offset="0.015" stop-color="#A7BFFF"/>
<stop offset="0.09" stop-color="#C3D3FF"/>
<stop offset="0.175" stop-color="#D9E3FF"/>
<stop offset="0.274" stop-color="#EAF0FF"/>
<stop offset="0.396" stop-color="#F6F8FF"/>
<stop offset="0.563" stop-color="#FDFEFF"/>
<stop offset="1" stop-color="white"/>
</linearGradient>
<linearGradient id="paint65_linear_140_1396" x1="107.153" y1="429.24" x2="161.488" y2="429.24" gradientUnits="userSpaceOnUse">
<stop stop-color="#7633FF"/>
<stop offset="0.216" stop-color="#4E53FF"/>
<stop offset="0.436" stop-color="#2C6DFF"/>
<stop offset="0.646" stop-color="#1480FF"/>
<stop offset="0.839" stop-color="#058CFF"/>
<stop offset="1" stop-color="#0090FF"/>
</linearGradient>
<linearGradient id="paint66_linear_140_1396" x1="126.265" y1="379.436" x2="151.051" y2="379.436" gradientUnits="userSpaceOnUse">
<stop stop-color="#A1BAFF"/>
<stop offset="0.015" stop-color="#A7BFFF"/>
<stop offset="0.09" stop-color="#C3D3FF"/>
<stop offset="0.175" stop-color="#D9E3FF"/>
<stop offset="0.274" stop-color="#EAF0FF"/>
<stop offset="0.396" stop-color="#F6F8FF"/>
<stop offset="0.563" stop-color="#FDFEFF"/>
<stop offset="1" stop-color="white"/>
</linearGradient>
<linearGradient id="paint67_linear_140_1396" x1="104.905" y1="488.638" x2="183.222" y2="608.725" gradientUnits="userSpaceOnUse">
<stop stop-color="#270036"/>
<stop offset="0.594" stop-color="#4F008B"/>
<stop offset="1" stop-color="#4C24B1"/>
</linearGradient>
<linearGradient id="paint68_linear_140_1396" x1="128.045" y1="469.651" x2="112.873" y2="561.895" gradientUnits="userSpaceOnUse">
<stop stop-color="#270036"/>
<stop offset="0.594" stop-color="#4F008B"/>
<stop offset="1" stop-color="#4C24B1"/>
</linearGradient>
<linearGradient id="paint69_linear_140_1396" x1="86.6301" y1="425.05" x2="157.017" y2="425.05" gradientUnits="userSpaceOnUse">
<stop stop-color="#A1BAFF"/>
<stop offset="0.015" stop-color="#A7BFFF"/>
<stop offset="0.09" stop-color="#C3D3FF"/>
<stop offset="0.175" stop-color="#D9E3FF"/>
<stop offset="0.274" stop-color="#EAF0FF"/>
<stop offset="0.396" stop-color="#F6F8FF"/>
<stop offset="0.563" stop-color="#FDFEFF"/>
<stop offset="1" stop-color="white"/>
</linearGradient>
<linearGradient id="paint70_linear_140_1396" x1="140.531" y1="405.776" x2="160.557" y2="405.776" gradientUnits="userSpaceOnUse">
<stop stop-color="#7633FF"/>
<stop offset="0.216" stop-color="#4E53FF"/>
<stop offset="0.436" stop-color="#2C6DFF"/>
<stop offset="0.646" stop-color="#1480FF"/>
<stop offset="0.839" stop-color="#058CFF"/>
<stop offset="1" stop-color="#0090FF"/>
</linearGradient>
<linearGradient id="paint71_linear_140_1396" x1="113.222" y1="400.432" x2="123.538" y2="400.432" gradientUnits="userSpaceOnUse">
<stop stop-color="#7633FF"/>
<stop offset="0.216" stop-color="#4E53FF"/>
<stop offset="0.436" stop-color="#2C6DFF"/>
<stop offset="0.646" stop-color="#1480FF"/>
<stop offset="0.839" stop-color="#058CFF"/>
<stop offset="1" stop-color="#0090FF"/>
</linearGradient>
<linearGradient id="paint72_linear_140_1396" x1="180.798" y1="294.422" x2="293.292" y2="294.422" gradientUnits="userSpaceOnUse">
<stop stop-color="#311842"/>
<stop offset="0.461" stop-color="#190C4B"/>
<stop offset="1" stop-color="#000054"/>
</linearGradient>
<linearGradient id="paint73_linear_140_1396" x1="237.947" y1="232.124" x2="240.678" y2="285.829" gradientUnits="userSpaceOnUse">
<stop stop-color="#1DACFF"/>
<stop offset="0.136" stop-color="#1CA9FB"/>
<stop offset="0.274" stop-color="#1B9FEF"/>
<stop offset="0.414" stop-color="#188EDA"/>
<stop offset="0.555" stop-color="#1476BD"/>
<stop offset="0.696" stop-color="#0F5898"/>
<stop offset="0.839" stop-color="#08326B"/>
<stop offset="0.979" stop-color="#010737"/>
<stop offset="1" stop-color="#00002E"/>
</linearGradient>
<linearGradient id="paint74_linear_140_1396" x1="228.751" y1="232.13" x2="246.928" y2="232.13" gradientUnits="userSpaceOnUse">
<stop stop-color="#A1BAFF"/>
<stop offset="0.015" stop-color="#A7BFFF"/>
<stop offset="0.09" stop-color="#C3D3FF"/>
<stop offset="0.175" stop-color="#D9E3FF"/>
<stop offset="0.274" stop-color="#EAF0FF"/>
<stop offset="0.396" stop-color="#F6F8FF"/>
<stop offset="0.563" stop-color="#FDFEFF"/>
<stop offset="1" stop-color="white"/>
</linearGradient>
<linearGradient id="paint75_linear_140_1396" x1="223.404" y1="216.006" x2="251.724" y2="216.006" gradientUnits="userSpaceOnUse">
<stop stop-color="#A1BAFF"/>
<stop offset="0.015" stop-color="#A7BFFF"/>
<stop offset="0.09" stop-color="#C3D3FF"/>
<stop offset="0.175" stop-color="#D9E3FF"/>
<stop offset="0.274" stop-color="#EAF0FF"/>
<stop offset="0.396" stop-color="#F6F8FF"/>
<stop offset="0.563" stop-color="#FDFEFF"/>
<stop offset="1" stop-color="white"/>
</linearGradient>
<linearGradient id="paint76_linear_140_1396" x1="205.209" y1="270.227" x2="241.383" y2="270.227" gradientUnits="userSpaceOnUse">
<stop stop-color="#A1BAFF"/>
<stop offset="0.015" stop-color="#A7BFFF"/>
<stop offset="0.09" stop-color="#C3D3FF"/>
<stop offset="0.175" stop-color="#D9E3FF"/>
<stop offset="0.274" stop-color="#EAF0FF"/>
<stop offset="0.396" stop-color="#F6F8FF"/>
<stop offset="0.563" stop-color="#FDFEFF"/>
<stop offset="1" stop-color="white"/>
</linearGradient>
<linearGradient id="paint77_linear_140_1396" x1="223.276" y1="293.092" x2="249.384" y2="293.092" gradientUnits="userSpaceOnUse">
<stop stop-color="#7633FF"/>
<stop offset="0.129" stop-color="#7231FA"/>
<stop offset="0.287" stop-color="#682DEB"/>
<stop offset="0.461" stop-color="#5625D2"/>
<stop offset="0.646" stop-color="#3E1BAF"/>
<stop offset="0.837" stop-color="#1F0D83"/>
<stop offset="1" stop-color="#000057"/>
</linearGradient>
<linearGradient id="paint78_linear_140_1396" x1="180.798" y1="294.053" x2="229.769" y2="294.053" gradientUnits="userSpaceOnUse">
<stop stop-color="#7633FF"/>
<stop offset="0.129" stop-color="#7231FA"/>
<stop offset="0.287" stop-color="#682DEB"/>
<stop offset="0.461" stop-color="#5625D2"/>
<stop offset="0.646" stop-color="#3E1BAF"/>
<stop offset="0.837" stop-color="#1F0D83"/>
<stop offset="1" stop-color="#000057"/>
</linearGradient>
<linearGradient id="paint79_linear_140_1396" x1="228.447" y1="305.036" x2="241.36" y2="305.036" gradientUnits="userSpaceOnUse">
<stop stop-color="#A1BAFF"/>
<stop offset="0.015" stop-color="#A7BFFF"/>
<stop offset="0.09" stop-color="#C3D3FF"/>
<stop offset="0.175" stop-color="#D9E3FF"/>
<stop offset="0.274" stop-color="#EAF0FF"/>
<stop offset="0.396" stop-color="#F6F8FF"/>
<stop offset="0.563" stop-color="#FDFEFF"/>
<stop offset="1" stop-color="white"/>
</linearGradient>
<linearGradient id="paint80_linear_140_1396" x1="236.681" y1="302.213" x2="245.102" y2="302.213" gradientUnits="userSpaceOnUse">
<stop stop-color="#A1BAFF"/>
<stop offset="0.015" stop-color="#A7BFFF"/>
<stop offset="0.09" stop-color="#C3D3FF"/>
<stop offset="0.175" stop-color="#D9E3FF"/>
<stop offset="0.274" stop-color="#EAF0FF"/>
<stop offset="0.396" stop-color="#F6F8FF"/>
<stop offset="0.563" stop-color="#FDFEFF"/>
<stop offset="1" stop-color="white"/>
</linearGradient>
<linearGradient id="paint81_linear_140_1396" x1="244.167" y1="291.767" x2="293.292" y2="291.767" gradientUnits="userSpaceOnUse">
<stop stop-color="#7633FF"/>
<stop offset="0.129" stop-color="#7231FA"/>
<stop offset="0.287" stop-color="#682DEB"/>
<stop offset="0.461" stop-color="#5625D2"/>
<stop offset="0.646" stop-color="#3E1BAF"/>
<stop offset="0.837" stop-color="#1F0D83"/>
<stop offset="1" stop-color="#000057"/>
</linearGradient>
<linearGradient id="paint82_linear_140_1396" x1="232.426" y1="270.068" x2="273.367" y2="270.068" gradientUnits="userSpaceOnUse">
<stop stop-color="#A1BAFF"/>
<stop offset="0.015" stop-color="#A7BFFF"/>
<stop offset="0.09" stop-color="#C3D3FF"/>
<stop offset="0.175" stop-color="#D9E3FF"/>
<stop offset="0.274" stop-color="#EAF0FF"/>
<stop offset="0.396" stop-color="#F6F8FF"/>
<stop offset="0.563" stop-color="#FDFEFF"/>
<stop offset="1" stop-color="white"/>
</linearGradient>
<linearGradient id="paint83_linear_140_1396" x1="237.161" y1="542.662" x2="260.431" y2="542.662" gradientUnits="userSpaceOnUse">
<stop stop-color="#A1BAFF"/>
<stop offset="0.015" stop-color="#A7BFFF"/>
<stop offset="0.09" stop-color="#C3D3FF"/>
<stop offset="0.175" stop-color="#D9E3FF"/>
<stop offset="0.274" stop-color="#EAF0FF"/>
<stop offset="0.396" stop-color="#F6F8FF"/>
<stop offset="0.563" stop-color="#FDFEFF"/>
<stop offset="1" stop-color="white"/>
</linearGradient>
<linearGradient id="paint84_linear_140_1396" x1="247.733" y1="552.825" x2="231.22" y2="583.099" gradientUnits="userSpaceOnUse">
<stop stop-color="#8990FF"/>
<stop offset="0.011" stop-color="#8D95FF"/>
<stop offset="0.086" stop-color="#A5B0FF"/>
<stop offset="0.172" stop-color="#B9C6FF"/>
<stop offset="0.271" stop-color="#C8D7FF"/>
<stop offset="0.393" stop-color="#D3E3FF"/>
<stop offset="0.561" stop-color="#D9EAFF"/>
<stop offset="1" stop-color="#DBECFF"/>
</linearGradient>
<linearGradient id="paint85_linear_140_1396" x1="258.456" y1="566.918" x2="314.149" y2="566.918" gradientUnits="userSpaceOnUse">
<stop stop-color="#8815FF"/>
<stop offset="0.01" stop-color="#8917FF"/>
<stop offset="0.233" stop-color="#9E42FF"/>
<stop offset="0.45" stop-color="#AF64FF"/>
<stop offset="0.654" stop-color="#BA7CFF"/>
<stop offset="0.843" stop-color="#C28BFF"/>
<stop offset="1" stop-color="#C490FF"/>
</linearGradient>
<linearGradient id="paint86_linear_140_1396" x1="271.857" y1="552.744" x2="223.712" y2="595.225" gradientUnits="userSpaceOnUse">
<stop stop-color="#A1BAFF"/>
<stop offset="0.015" stop-color="#A7BFFF"/>
<stop offset="0.09" stop-color="#C3D3FF"/>
<stop offset="0.175" stop-color="#D9E3FF"/>
<stop offset="0.274" stop-color="#EAF0FF"/>
<stop offset="0.396" stop-color="#F6F8FF"/>
<stop offset="0.563" stop-color="#FDFEFF"/>
<stop offset="1" stop-color="white"/>
</linearGradient>
<linearGradient id="paint87_linear_140_1396" x1="213.208" y1="567.374" x2="224.132" y2="567.374" gradientUnits="userSpaceOnUse">
<stop stop-color="#7633FF"/>
<stop offset="0.216" stop-color="#4E53FF"/>
<stop offset="0.436" stop-color="#2C6DFF"/>
<stop offset="0.646" stop-color="#1480FF"/>
<stop offset="0.839" stop-color="#058CFF"/>
<stop offset="1" stop-color="#0090FF"/>
</linearGradient>
<linearGradient id="paint88_linear_140_1396" x1="313.828" y1="575.404" x2="364.873" y2="575.404" gradientUnits="userSpaceOnUse">
<stop stop-color="#7633FF"/>
<stop offset="0.216" stop-color="#4E53FF"/>
<stop offset="0.436" stop-color="#2C6DFF"/>
<stop offset="0.646" stop-color="#1480FF"/>
<stop offset="0.839" stop-color="#058CFF"/>
<stop offset="1" stop-color="#0090FF"/>
</linearGradient>
<linearGradient id="paint89_linear_140_1396" x1="364.115" y1="546.393" x2="401.041" y2="546.393" gradientUnits="userSpaceOnUse">
<stop stop-color="#A1BAFF"/>
<stop offset="0.015" stop-color="#A7BFFF"/>
<stop offset="0.09" stop-color="#C3D3FF"/>
<stop offset="0.175" stop-color="#D9E3FF"/>
<stop offset="0.274" stop-color="#EAF0FF"/>
<stop offset="0.396" stop-color="#F6F8FF"/>
<stop offset="0.563" stop-color="#FDFEFF"/>
<stop offset="1" stop-color="white"/>
</linearGradient>
<linearGradient id="paint90_linear_140_1396" x1="374.027" y1="518.705" x2="401.041" y2="518.705" gradientUnits="userSpaceOnUse">
<stop stop-color="#7633FF"/>
<stop offset="0.216" stop-color="#4E53FF"/>
<stop offset="0.436" stop-color="#2C6DFF"/>
<stop offset="0.646" stop-color="#1480FF"/>
<stop offset="0.839" stop-color="#058CFF"/>
<stop offset="1" stop-color="#0090FF"/>
</linearGradient>
<linearGradient id="paint91_linear_140_1396" x1="382.273" y1="572.409" x2="345.255" y2="530.535" gradientUnits="userSpaceOnUse">
<stop stop-color="#A1BAFF"/>
<stop offset="0.015" stop-color="#A7BFFF"/>
<stop offset="0.09" stop-color="#C3D3FF"/>
<stop offset="0.175" stop-color="#D9E3FF"/>
<stop offset="0.274" stop-color="#EAF0FF"/>
<stop offset="0.396" stop-color="#F6F8FF"/>
<stop offset="0.563" stop-color="#FDFEFF"/>
<stop offset="1" stop-color="white"/>
</linearGradient>
<linearGradient id="paint92_linear_140_1396" x1="342.656" y1="530.018" x2="352.888" y2="530.018" gradientUnits="userSpaceOnUse">
<stop stop-color="#7633FF"/>
<stop offset="0.216" stop-color="#4E53FF"/>
<stop offset="0.436" stop-color="#2C6DFF"/>
<stop offset="0.646" stop-color="#1480FF"/>
<stop offset="0.839" stop-color="#058CFF"/>
<stop offset="1" stop-color="#0090FF"/>
</linearGradient>
<linearGradient id="paint93_linear_140_1396" x1="245.396" y1="541.301" x2="212.05" y2="568.061" gradientUnits="userSpaceOnUse">
<stop offset="0.004" stop-color="#7633FF" stop-opacity="0"/>
<stop offset="0.092" stop-color="#7051FF" stop-opacity="0.088"/>
<stop offset="0.263" stop-color="#6685FF" stop-opacity="0.26"/>
<stop offset="0.43" stop-color="#5EB1FF" stop-opacity="0.428"/>
<stop offset="0.591" stop-color="#57D3FF" stop-opacity="0.589"/>
<stop offset="0.743" stop-color="#53EBFF" stop-opacity="0.742"/>
<stop offset="0.883" stop-color="#50FAFF" stop-opacity="0.883"/>
<stop offset="1" stop-color="#4FFFFF"/>
</linearGradient>
<linearGradient id="paint94_linear_140_1396" x1="170.637" y1="339.877" x2="67.8409" y2="422.373" gradientUnits="userSpaceOnUse">
<stop offset="0.004" stop-color="#7633FF" stop-opacity="0"/>
<stop offset="0.092" stop-color="#7051FF" stop-opacity="0.088"/>
<stop offset="0.263" stop-color="#6685FF" stop-opacity="0.26"/>
<stop offset="0.43" stop-color="#5EB1FF" stop-opacity="0.428"/>
<stop offset="0.591" stop-color="#57D3FF" stop-opacity="0.589"/>
<stop offset="0.743" stop-color="#53EBFF" stop-opacity="0.742"/>
<stop offset="0.883" stop-color="#50FAFF" stop-opacity="0.883"/>
<stop offset="1" stop-color="#4FFFFF"/>
</linearGradient>
<linearGradient id="paint95_linear_140_1396" x1="246.473" y1="90.4703" x2="235.572" y2="298.455" gradientUnits="userSpaceOnUse">
<stop offset="0.004" stop-color="#7633FF" stop-opacity="0"/>
<stop offset="0.092" stop-color="#7051FF" stop-opacity="0.088"/>
<stop offset="0.263" stop-color="#6685FF" stop-opacity="0.26"/>
<stop offset="0.43" stop-color="#5EB1FF" stop-opacity="0.428"/>
<stop offset="0.591" stop-color="#57D3FF" stop-opacity="0.589"/>
<stop offset="0.743" stop-color="#53EBFF" stop-opacity="0.742"/>
<stop offset="0.883" stop-color="#50FAFF" stop-opacity="0.883"/>
<stop offset="1" stop-color="#4FFFFF"/>
</linearGradient>
<linearGradient id="paint96_linear_140_1396" x1="332.327" y1="145.69" x2="434.092" y2="219.626" gradientUnits="userSpaceOnUse">
<stop offset="0.004" stop-color="#7633FF" stop-opacity="0"/>
<stop offset="0.092" stop-color="#7051FF" stop-opacity="0.088"/>
<stop offset="0.263" stop-color="#6685FF" stop-opacity="0.26"/>
<stop offset="0.43" stop-color="#5EB1FF" stop-opacity="0.428"/>
<stop offset="0.591" stop-color="#57D3FF" stop-opacity="0.589"/>
<stop offset="0.743" stop-color="#53EBFF" stop-opacity="0.742"/>
<stop offset="0.883" stop-color="#50FAFF" stop-opacity="0.883"/>
<stop offset="1" stop-color="#4FFFFF"/>
</linearGradient>
<linearGradient id="paint97_linear_140_1396" x1="484.847" y1="382.136" x2="530.233" y2="396.012" gradientUnits="userSpaceOnUse">
<stop offset="0.004" stop-color="#7633FF" stop-opacity="0"/>
<stop offset="0.092" stop-color="#7051FF" stop-opacity="0.088"/>
<stop offset="0.263" stop-color="#6685FF" stop-opacity="0.26"/>
<stop offset="0.43" stop-color="#5EB1FF" stop-opacity="0.428"/>
<stop offset="0.591" stop-color="#57D3FF" stop-opacity="0.589"/>
<stop offset="0.743" stop-color="#53EBFF" stop-opacity="0.742"/>
<stop offset="0.883" stop-color="#50FAFF" stop-opacity="0.883"/>
<stop offset="1" stop-color="#4FFFFF"/>
</linearGradient>
<clipPath id="clip0_140_1396">
<rect width="668" height="600" fill="white"/>
</clipPath>
</defs>
</svg>
