<svg width="50" height="50" viewBox="0 0 50 50" fill="none" xmlns="http://www.w3.org/2000/svg">
<path d="M17.9143 35.8464V19.125H12.3536V35.8482H17.9125L17.9143 35.8464ZM15.1339 16.8393C17.0714 16.8393 18.2804 15.5536 18.2804 13.9482C18.2446 12.3089 17.0714 11.0607 15.1732 11.0607C13.2679 11.0607 12.0268 12.3107 12.0268 13.9482C12.0268 15.5554 13.2339 16.8411 15.1 16.8411L15.1339 16.8393ZM37.9589 35.8464V26.2589C37.9589 21.1214 35.2161 18.7304 31.5607 18.7304C28.6071 18.7304 27.2857 20.3554 26.55 21.4929V19.1214H20.9911C21.0643 20.6929 20.9911 35.8464 20.9911 35.8464H26.55V26.5071C26.55 26.0071 26.5857 25.5071 26.7321 25.1536C27.1321 24.1536 28.0482 23.1196 29.5821 23.1196C31.5946 23.1196 32.4036 24.6518 32.4036 26.9V35.8482H37.9607L37.9589 35.8464ZM25 0C38.8071 0 50 11.1911 50 25C50 38.8071 38.8071 50 25 50C11.1911 50 0 38.8071 0 25C0 11.1911 11.1911 0 25 0Z" fill="rgba(78, 27, 209, 1)"/>
</svg>
